<mxfile host="app.diagrams.net" agent="Mozilla/5.0 (Windows NT 10.0; Win64; x64) AppleWebKit/537.36 (KHTML, like Gecko) Chrome/128.0.0.0 Safari/537.36 Edg/128.0.0.0" version="24.7.12">
  <diagram name="Page-1" id="yF4b_deFSVlWdtcmTdpj">
    <mxGraphModel dx="2390" dy="926" grid="0" gridSize="10" guides="1" tooltips="1" connect="1" arrows="1" fold="1" page="1" pageScale="1" pageWidth="850" pageHeight="1100" background="none" math="0" shadow="0">
      <root>
        <mxCell id="0" />
        <mxCell id="1" parent="0" />
        <mxCell id="miBj2STuNEscEt3o1YzO-51" style="edgeStyle=orthogonalEdgeStyle;rounded=0;orthogonalLoop=1;jettySize=auto;html=1;" parent="1" source="iy5uLM-DOXcV6CtTuPYc-3" target="dzdEntVdq1MPW5jjg7Hb-29" edge="1">
          <mxGeometry relative="1" as="geometry" />
        </mxCell>
        <mxCell id="miBj2STuNEscEt3o1YzO-95" style="edgeStyle=orthogonalEdgeStyle;rounded=0;orthogonalLoop=1;jettySize=auto;html=1;entryX=0.5;entryY=0;entryDx=0;entryDy=0;" parent="1" source="iy5uLM-DOXcV6CtTuPYc-3" target="miBj2STuNEscEt3o1YzO-54" edge="1">
          <mxGeometry relative="1" as="geometry" />
        </mxCell>
        <mxCell id="iy5uLM-DOXcV6CtTuPYc-3" value="" style="shape=image;verticalLabelPosition=bottom;labelBackgroundColor=default;verticalAlign=top;aspect=fixed;imageAspect=0;image=https://miro.medium.com/v2/resize:fit:908/1*CjaH-vqt7LvnubwmRKmDTQ.png;fontColor=#3D3229;movable=1;resizable=1;rotatable=1;deletable=1;editable=1;locked=0;connectable=1;" parent="1" vertex="1">
          <mxGeometry x="740" y="520" width="90" height="90" as="geometry" />
        </mxCell>
        <mxCell id="miBj2STuNEscEt3o1YzO-49" style="edgeStyle=orthogonalEdgeStyle;rounded=0;orthogonalLoop=1;jettySize=auto;html=1;entryX=0.5;entryY=0;entryDx=0;entryDy=0;" parent="1" source="iy5uLM-DOXcV6CtTuPYc-38" target="iy5uLM-DOXcV6CtTuPYc-3" edge="1">
          <mxGeometry relative="1" as="geometry" />
        </mxCell>
        <mxCell id="miBj2STuNEscEt3o1YzO-50" value="Trigger" style="edgeLabel;html=1;align=center;verticalAlign=middle;resizable=0;points=[];" parent="miBj2STuNEscEt3o1YzO-49" vertex="1" connectable="0">
          <mxGeometry x="-0.0769" y="-2" relative="1" as="geometry">
            <mxPoint as="offset" />
          </mxGeometry>
        </mxCell>
        <mxCell id="iy5uLM-DOXcV6CtTuPYc-38" value="" style="shape=image;verticalLabelPosition=bottom;labelBackgroundColor=default;verticalAlign=top;aspect=fixed;imageAspect=0;image=https://cdn-ssl-devio-img.classmethod.jp/wp-content/uploads/2020/01/amazon-eventbridge.png;" parent="1" vertex="1">
          <mxGeometry x="160" y="360" width="160" height="84" as="geometry" />
        </mxCell>
        <mxCell id="dzdEntVdq1MPW5jjg7Hb-1" value="Audit" style="shape=table;startSize=30;container=1;collapsible=1;childLayout=tableLayout;fixedRows=1;rowLines=0;fontStyle=1;align=center;resizeLast=1;html=1;" parent="1" vertex="1">
          <mxGeometry x="930" y="650" width="180" height="311" as="geometry" />
        </mxCell>
        <mxCell id="dzdEntVdq1MPW5jjg7Hb-2" value="" style="shape=tableRow;horizontal=0;startSize=0;swimlaneHead=0;swimlaneBody=0;fillColor=none;collapsible=0;dropTarget=0;points=[[0,0.5],[1,0.5]];portConstraint=eastwest;top=0;left=0;right=0;bottom=1;" parent="dzdEntVdq1MPW5jjg7Hb-1" vertex="1">
          <mxGeometry y="30" width="180" height="41" as="geometry" />
        </mxCell>
        <mxCell id="dzdEntVdq1MPW5jjg7Hb-3" value="PK" style="shape=partialRectangle;connectable=0;fillColor=none;top=0;left=0;bottom=0;right=0;fontStyle=1;overflow=hidden;whiteSpace=wrap;html=1;" parent="dzdEntVdq1MPW5jjg7Hb-2" vertex="1">
          <mxGeometry width="30" height="41" as="geometry">
            <mxRectangle width="30" height="41" as="alternateBounds" />
          </mxGeometry>
        </mxCell>
        <mxCell id="dzdEntVdq1MPW5jjg7Hb-4" value="&lt;div style=&quot;background-color: rgb(255, 255, 255);&quot;&gt;&lt;pre style=&quot;font-family:&#39;JetBrains Mono&#39;,monospace;font-size:9.8pt;&quot;&gt;audit id&lt;/pre&gt;&lt;/div&gt;" style="shape=partialRectangle;connectable=0;fillColor=none;top=0;left=0;bottom=0;right=0;align=left;spacingLeft=6;fontStyle=5;overflow=hidden;whiteSpace=wrap;html=1;" parent="dzdEntVdq1MPW5jjg7Hb-2" vertex="1">
          <mxGeometry x="30" width="150" height="41" as="geometry">
            <mxRectangle width="150" height="41" as="alternateBounds" />
          </mxGeometry>
        </mxCell>
        <mxCell id="dzdEntVdq1MPW5jjg7Hb-5" value="" style="shape=tableRow;horizontal=0;startSize=0;swimlaneHead=0;swimlaneBody=0;fillColor=none;collapsible=0;dropTarget=0;points=[[0,0.5],[1,0.5]];portConstraint=eastwest;top=0;left=0;right=0;bottom=0;" parent="dzdEntVdq1MPW5jjg7Hb-1" vertex="1">
          <mxGeometry y="71" width="180" height="30" as="geometry" />
        </mxCell>
        <mxCell id="dzdEntVdq1MPW5jjg7Hb-6" value="" style="shape=partialRectangle;connectable=0;fillColor=none;top=0;left=0;bottom=0;right=0;editable=1;overflow=hidden;whiteSpace=wrap;html=1;" parent="dzdEntVdq1MPW5jjg7Hb-5" vertex="1">
          <mxGeometry width="30" height="30" as="geometry">
            <mxRectangle width="30" height="30" as="alternateBounds" />
          </mxGeometry>
        </mxCell>
        <mxCell id="dzdEntVdq1MPW5jjg7Hb-7" value="timestamp" style="shape=partialRectangle;connectable=0;fillColor=none;top=0;left=0;bottom=0;right=0;align=left;spacingLeft=6;overflow=hidden;whiteSpace=wrap;html=1;" parent="dzdEntVdq1MPW5jjg7Hb-5" vertex="1">
          <mxGeometry x="30" width="150" height="30" as="geometry">
            <mxRectangle width="150" height="30" as="alternateBounds" />
          </mxGeometry>
        </mxCell>
        <mxCell id="dzdEntVdq1MPW5jjg7Hb-8" value="" style="shape=tableRow;horizontal=0;startSize=0;swimlaneHead=0;swimlaneBody=0;fillColor=none;collapsible=0;dropTarget=0;points=[[0,0.5],[1,0.5]];portConstraint=eastwest;top=0;left=0;right=0;bottom=0;" parent="dzdEntVdq1MPW5jjg7Hb-1" vertex="1">
          <mxGeometry y="101" width="180" height="30" as="geometry" />
        </mxCell>
        <mxCell id="dzdEntVdq1MPW5jjg7Hb-9" value="" style="shape=partialRectangle;connectable=0;fillColor=none;top=0;left=0;bottom=0;right=0;editable=1;overflow=hidden;whiteSpace=wrap;html=1;" parent="dzdEntVdq1MPW5jjg7Hb-8" vertex="1">
          <mxGeometry width="30" height="30" as="geometry">
            <mxRectangle width="30" height="30" as="alternateBounds" />
          </mxGeometry>
        </mxCell>
        <mxCell id="dzdEntVdq1MPW5jjg7Hb-10" value="operation_id" style="shape=partialRectangle;connectable=0;fillColor=none;top=0;left=0;bottom=0;right=0;align=left;spacingLeft=6;overflow=hidden;whiteSpace=wrap;html=1;" parent="dzdEntVdq1MPW5jjg7Hb-8" vertex="1">
          <mxGeometry x="30" width="150" height="30" as="geometry">
            <mxRectangle width="150" height="30" as="alternateBounds" />
          </mxGeometry>
        </mxCell>
        <mxCell id="dzdEntVdq1MPW5jjg7Hb-11" value="" style="shape=tableRow;horizontal=0;startSize=0;swimlaneHead=0;swimlaneBody=0;fillColor=none;collapsible=0;dropTarget=0;points=[[0,0.5],[1,0.5]];portConstraint=eastwest;top=0;left=0;right=0;bottom=0;" parent="dzdEntVdq1MPW5jjg7Hb-1" vertex="1">
          <mxGeometry y="131" width="180" height="30" as="geometry" />
        </mxCell>
        <mxCell id="dzdEntVdq1MPW5jjg7Hb-12" value="" style="shape=partialRectangle;connectable=0;fillColor=none;top=0;left=0;bottom=0;right=0;editable=1;overflow=hidden;whiteSpace=wrap;html=1;" parent="dzdEntVdq1MPW5jjg7Hb-11" vertex="1">
          <mxGeometry width="30" height="30" as="geometry">
            <mxRectangle width="30" height="30" as="alternateBounds" />
          </mxGeometry>
        </mxCell>
        <mxCell id="dzdEntVdq1MPW5jjg7Hb-13" value="schema_version" style="shape=partialRectangle;connectable=0;fillColor=none;top=0;left=0;bottom=0;right=0;align=left;spacingLeft=6;overflow=hidden;whiteSpace=wrap;html=1;" parent="dzdEntVdq1MPW5jjg7Hb-11" vertex="1">
          <mxGeometry x="30" width="150" height="30" as="geometry">
            <mxRectangle width="150" height="30" as="alternateBounds" />
          </mxGeometry>
        </mxCell>
        <mxCell id="dzdEntVdq1MPW5jjg7Hb-14" value="" style="shape=tableRow;horizontal=0;startSize=0;swimlaneHead=0;swimlaneBody=0;fillColor=none;collapsible=0;dropTarget=0;points=[[0,0.5],[1,0.5]];portConstraint=eastwest;top=0;left=0;right=0;bottom=0;" parent="dzdEntVdq1MPW5jjg7Hb-1" vertex="1">
          <mxGeometry y="161" width="180" height="30" as="geometry" />
        </mxCell>
        <mxCell id="dzdEntVdq1MPW5jjg7Hb-15" value="" style="shape=partialRectangle;connectable=0;fillColor=none;top=0;left=0;bottom=0;right=0;editable=1;overflow=hidden;" parent="dzdEntVdq1MPW5jjg7Hb-14" vertex="1">
          <mxGeometry width="30" height="30" as="geometry">
            <mxRectangle width="30" height="30" as="alternateBounds" />
          </mxGeometry>
        </mxCell>
        <mxCell id="dzdEntVdq1MPW5jjg7Hb-16" value="changed_column" style="shape=partialRectangle;connectable=0;fillColor=none;top=0;left=0;bottom=0;right=0;align=left;spacingLeft=6;overflow=hidden;" parent="dzdEntVdq1MPW5jjg7Hb-14" vertex="1">
          <mxGeometry x="30" width="150" height="30" as="geometry">
            <mxRectangle width="150" height="30" as="alternateBounds" />
          </mxGeometry>
        </mxCell>
        <mxCell id="dzdEntVdq1MPW5jjg7Hb-26" value="" style="shape=tableRow;horizontal=0;startSize=0;swimlaneHead=0;swimlaneBody=0;fillColor=none;collapsible=0;dropTarget=0;points=[[0,0.5],[1,0.5]];portConstraint=eastwest;top=0;left=0;right=0;bottom=0;" parent="dzdEntVdq1MPW5jjg7Hb-1" vertex="1">
          <mxGeometry y="191" width="180" height="30" as="geometry" />
        </mxCell>
        <mxCell id="dzdEntVdq1MPW5jjg7Hb-27" value="" style="shape=partialRectangle;connectable=0;fillColor=none;top=0;left=0;bottom=0;right=0;editable=1;overflow=hidden;" parent="dzdEntVdq1MPW5jjg7Hb-26" vertex="1">
          <mxGeometry width="30" height="30" as="geometry">
            <mxRectangle width="30" height="30" as="alternateBounds" />
          </mxGeometry>
        </mxCell>
        <mxCell id="dzdEntVdq1MPW5jjg7Hb-28" value="is_committed" style="shape=partialRectangle;connectable=0;fillColor=none;top=0;left=0;bottom=0;right=0;align=left;spacingLeft=6;overflow=hidden;" parent="dzdEntVdq1MPW5jjg7Hb-26" vertex="1">
          <mxGeometry x="30" width="150" height="30" as="geometry">
            <mxRectangle width="150" height="30" as="alternateBounds" />
          </mxGeometry>
        </mxCell>
        <mxCell id="dzdEntVdq1MPW5jjg7Hb-23" value="" style="shape=tableRow;horizontal=0;startSize=0;swimlaneHead=0;swimlaneBody=0;fillColor=none;collapsible=0;dropTarget=0;points=[[0,0.5],[1,0.5]];portConstraint=eastwest;top=0;left=0;right=0;bottom=0;" parent="dzdEntVdq1MPW5jjg7Hb-1" vertex="1">
          <mxGeometry y="221" width="180" height="30" as="geometry" />
        </mxCell>
        <mxCell id="dzdEntVdq1MPW5jjg7Hb-24" value="" style="shape=partialRectangle;connectable=0;fillColor=none;top=0;left=0;bottom=0;right=0;editable=1;overflow=hidden;" parent="dzdEntVdq1MPW5jjg7Hb-23" vertex="1">
          <mxGeometry width="30" height="30" as="geometry">
            <mxRectangle width="30" height="30" as="alternateBounds" />
          </mxGeometry>
        </mxCell>
        <mxCell id="dzdEntVdq1MPW5jjg7Hb-25" value="user_id" style="shape=partialRectangle;connectable=0;fillColor=none;top=0;left=0;bottom=0;right=0;align=left;spacingLeft=6;overflow=hidden;" parent="dzdEntVdq1MPW5jjg7Hb-23" vertex="1">
          <mxGeometry x="30" width="150" height="30" as="geometry">
            <mxRectangle width="150" height="30" as="alternateBounds" />
          </mxGeometry>
        </mxCell>
        <mxCell id="TbAeEo4B2QuOrT_JkvIs-4" value="" style="shape=tableRow;horizontal=0;startSize=0;swimlaneHead=0;swimlaneBody=0;fillColor=none;collapsible=0;dropTarget=0;points=[[0,0.5],[1,0.5]];portConstraint=eastwest;top=0;left=0;right=0;bottom=0;" vertex="1" parent="dzdEntVdq1MPW5jjg7Hb-1">
          <mxGeometry y="251" width="180" height="30" as="geometry" />
        </mxCell>
        <mxCell id="TbAeEo4B2QuOrT_JkvIs-5" value="" style="shape=partialRectangle;connectable=0;fillColor=none;top=0;left=0;bottom=0;right=0;editable=1;overflow=hidden;" vertex="1" parent="TbAeEo4B2QuOrT_JkvIs-4">
          <mxGeometry width="30" height="30" as="geometry">
            <mxRectangle width="30" height="30" as="alternateBounds" />
          </mxGeometry>
        </mxCell>
        <mxCell id="TbAeEo4B2QuOrT_JkvIs-6" value="created_at" style="shape=partialRectangle;connectable=0;fillColor=none;top=0;left=0;bottom=0;right=0;align=left;spacingLeft=6;overflow=hidden;" vertex="1" parent="TbAeEo4B2QuOrT_JkvIs-4">
          <mxGeometry x="30" width="150" height="30" as="geometry">
            <mxRectangle width="150" height="30" as="alternateBounds" />
          </mxGeometry>
        </mxCell>
        <mxCell id="TbAeEo4B2QuOrT_JkvIs-1" value="" style="shape=tableRow;horizontal=0;startSize=0;swimlaneHead=0;swimlaneBody=0;fillColor=none;collapsible=0;dropTarget=0;points=[[0,0.5],[1,0.5]];portConstraint=eastwest;top=0;left=0;right=0;bottom=0;" vertex="1" parent="dzdEntVdq1MPW5jjg7Hb-1">
          <mxGeometry y="281" width="180" height="30" as="geometry" />
        </mxCell>
        <mxCell id="TbAeEo4B2QuOrT_JkvIs-2" value="" style="shape=partialRectangle;connectable=0;fillColor=none;top=0;left=0;bottom=0;right=0;editable=1;overflow=hidden;" vertex="1" parent="TbAeEo4B2QuOrT_JkvIs-1">
          <mxGeometry width="30" height="30" as="geometry">
            <mxRectangle width="30" height="30" as="alternateBounds" />
          </mxGeometry>
        </mxCell>
        <mxCell id="TbAeEo4B2QuOrT_JkvIs-3" value="updated_at" style="shape=partialRectangle;connectable=0;fillColor=none;top=0;left=0;bottom=0;right=0;align=left;spacingLeft=6;overflow=hidden;" vertex="1" parent="TbAeEo4B2QuOrT_JkvIs-1">
          <mxGeometry x="30" width="150" height="30" as="geometry">
            <mxRectangle width="150" height="30" as="alternateBounds" />
          </mxGeometry>
        </mxCell>
        <mxCell id="dzdEntVdq1MPW5jjg7Hb-29" value="job" style="shape=table;startSize=30;container=1;collapsible=1;childLayout=tableLayout;fixedRows=1;rowLines=0;fontStyle=1;align=center;resizeLast=1;" parent="1" vertex="1">
          <mxGeometry x="260" y="650" width="360.4000000000001" height="430" as="geometry" />
        </mxCell>
        <mxCell id="dzdEntVdq1MPW5jjg7Hb-30" value="" style="shape=partialRectangle;collapsible=0;dropTarget=0;pointerEvents=0;fillColor=none;points=[[0,0.5],[1,0.5]];portConstraint=eastwest;top=0;left=0;right=0;bottom=1;" parent="dzdEntVdq1MPW5jjg7Hb-29" vertex="1">
          <mxGeometry y="30" width="360.4000000000001" height="30" as="geometry" />
        </mxCell>
        <mxCell id="dzdEntVdq1MPW5jjg7Hb-31" value="PK" style="shape=partialRectangle;overflow=hidden;connectable=0;fillColor=none;top=0;left=0;bottom=0;right=0;fontStyle=1;" parent="dzdEntVdq1MPW5jjg7Hb-30" vertex="1">
          <mxGeometry width="30" height="30" as="geometry">
            <mxRectangle width="30" height="30" as="alternateBounds" />
          </mxGeometry>
        </mxCell>
        <mxCell id="dzdEntVdq1MPW5jjg7Hb-32" value="job_id" style="shape=partialRectangle;overflow=hidden;connectable=0;fillColor=none;top=0;left=0;bottom=0;right=0;align=left;spacingLeft=6;fontStyle=5;" parent="dzdEntVdq1MPW5jjg7Hb-30" vertex="1">
          <mxGeometry x="30" width="330.4000000000001" height="30" as="geometry">
            <mxRectangle width="330.4000000000001" height="30" as="alternateBounds" />
          </mxGeometry>
        </mxCell>
        <mxCell id="dzdEntVdq1MPW5jjg7Hb-51" value="" style="shape=tableRow;horizontal=0;startSize=0;swimlaneHead=0;swimlaneBody=0;fillColor=none;collapsible=0;dropTarget=0;points=[[0,0.5],[1,0.5]];portConstraint=eastwest;top=0;left=0;right=0;bottom=0;" parent="dzdEntVdq1MPW5jjg7Hb-29" vertex="1">
          <mxGeometry y="60" width="360.4000000000001" height="30" as="geometry" />
        </mxCell>
        <mxCell id="dzdEntVdq1MPW5jjg7Hb-52" value="" style="shape=partialRectangle;connectable=0;fillColor=none;top=0;left=0;bottom=0;right=0;editable=1;overflow=hidden;" parent="dzdEntVdq1MPW5jjg7Hb-51" vertex="1">
          <mxGeometry width="30" height="30" as="geometry">
            <mxRectangle width="30" height="30" as="alternateBounds" />
          </mxGeometry>
        </mxCell>
        <mxCell id="dzdEntVdq1MPW5jjg7Hb-53" value="job_name" style="shape=partialRectangle;connectable=0;fillColor=none;top=0;left=0;bottom=0;right=0;align=left;spacingLeft=6;overflow=hidden;" parent="dzdEntVdq1MPW5jjg7Hb-51" vertex="1">
          <mxGeometry x="30" width="330.4000000000001" height="30" as="geometry">
            <mxRectangle width="330.4000000000001" height="30" as="alternateBounds" />
          </mxGeometry>
        </mxCell>
        <mxCell id="dzdEntVdq1MPW5jjg7Hb-54" value="" style="shape=tableRow;horizontal=0;startSize=0;swimlaneHead=0;swimlaneBody=0;fillColor=none;collapsible=0;dropTarget=0;points=[[0,0.5],[1,0.5]];portConstraint=eastwest;top=0;left=0;right=0;bottom=0;" parent="dzdEntVdq1MPW5jjg7Hb-29" vertex="1">
          <mxGeometry y="90" width="360.4000000000001" height="30" as="geometry" />
        </mxCell>
        <mxCell id="dzdEntVdq1MPW5jjg7Hb-55" value="FK" style="shape=partialRectangle;connectable=0;fillColor=none;top=0;left=0;bottom=0;right=0;editable=1;overflow=hidden;" parent="dzdEntVdq1MPW5jjg7Hb-54" vertex="1">
          <mxGeometry width="30" height="30" as="geometry">
            <mxRectangle width="30" height="30" as="alternateBounds" />
          </mxGeometry>
        </mxCell>
        <mxCell id="dzdEntVdq1MPW5jjg7Hb-56" value="job_type_id" style="shape=partialRectangle;connectable=0;fillColor=none;top=0;left=0;bottom=0;right=0;align=left;spacingLeft=6;overflow=hidden;" parent="dzdEntVdq1MPW5jjg7Hb-54" vertex="1">
          <mxGeometry x="30" width="330.4000000000001" height="30" as="geometry">
            <mxRectangle width="330.4000000000001" height="30" as="alternateBounds" />
          </mxGeometry>
        </mxCell>
        <mxCell id="dzdEntVdq1MPW5jjg7Hb-57" value="" style="shape=tableRow;horizontal=0;startSize=0;swimlaneHead=0;swimlaneBody=0;fillColor=none;collapsible=0;dropTarget=0;points=[[0,0.5],[1,0.5]];portConstraint=eastwest;top=0;left=0;right=0;bottom=0;" parent="dzdEntVdq1MPW5jjg7Hb-29" vertex="1">
          <mxGeometry y="120" width="360.4000000000001" height="30" as="geometry" />
        </mxCell>
        <mxCell id="dzdEntVdq1MPW5jjg7Hb-58" value="" style="shape=partialRectangle;connectable=0;fillColor=none;top=0;left=0;bottom=0;right=0;editable=1;overflow=hidden;" parent="dzdEntVdq1MPW5jjg7Hb-57" vertex="1">
          <mxGeometry width="30" height="30" as="geometry">
            <mxRectangle width="30" height="30" as="alternateBounds" />
          </mxGeometry>
        </mxCell>
        <mxCell id="dzdEntVdq1MPW5jjg7Hb-59" value="priority ( 1 to 5) " style="shape=partialRectangle;connectable=0;fillColor=none;top=0;left=0;bottom=0;right=0;align=left;spacingLeft=6;overflow=hidden;" parent="dzdEntVdq1MPW5jjg7Hb-57" vertex="1">
          <mxGeometry x="30" width="330.4000000000001" height="30" as="geometry">
            <mxRectangle width="330.4000000000001" height="30" as="alternateBounds" />
          </mxGeometry>
        </mxCell>
        <mxCell id="dzdEntVdq1MPW5jjg7Hb-60" value="" style="shape=tableRow;horizontal=0;startSize=0;swimlaneHead=0;swimlaneBody=0;fillColor=none;collapsible=0;dropTarget=0;points=[[0,0.5],[1,0.5]];portConstraint=eastwest;top=0;left=0;right=0;bottom=0;" parent="dzdEntVdq1MPW5jjg7Hb-29" vertex="1">
          <mxGeometry y="150" width="360.4000000000001" height="30" as="geometry" />
        </mxCell>
        <mxCell id="dzdEntVdq1MPW5jjg7Hb-61" value="" style="shape=partialRectangle;connectable=0;fillColor=none;top=0;left=0;bottom=0;right=0;editable=1;overflow=hidden;" parent="dzdEntVdq1MPW5jjg7Hb-60" vertex="1">
          <mxGeometry width="30" height="30" as="geometry">
            <mxRectangle width="30" height="30" as="alternateBounds" />
          </mxGeometry>
        </mxCell>
        <mxCell id="dzdEntVdq1MPW5jjg7Hb-62" value="retries" style="shape=partialRectangle;connectable=0;fillColor=none;top=0;left=0;bottom=0;right=0;align=left;spacingLeft=6;overflow=hidden;" parent="dzdEntVdq1MPW5jjg7Hb-60" vertex="1">
          <mxGeometry x="30" width="330.4000000000001" height="30" as="geometry">
            <mxRectangle width="330.4000000000001" height="30" as="alternateBounds" />
          </mxGeometry>
        </mxCell>
        <mxCell id="dzdEntVdq1MPW5jjg7Hb-66" value="" style="shape=tableRow;horizontal=0;startSize=0;swimlaneHead=0;swimlaneBody=0;fillColor=none;collapsible=0;dropTarget=0;points=[[0,0.5],[1,0.5]];portConstraint=eastwest;top=0;left=0;right=0;bottom=0;" parent="dzdEntVdq1MPW5jjg7Hb-29" vertex="1">
          <mxGeometry y="180" width="360.4000000000001" height="40" as="geometry" />
        </mxCell>
        <mxCell id="dzdEntVdq1MPW5jjg7Hb-67" value="" style="shape=partialRectangle;connectable=0;fillColor=none;top=0;left=0;bottom=0;right=0;editable=1;overflow=hidden;" parent="dzdEntVdq1MPW5jjg7Hb-66" vertex="1">
          <mxGeometry width="30" height="40" as="geometry">
            <mxRectangle width="30" height="40" as="alternateBounds" />
          </mxGeometry>
        </mxCell>
        <mxCell id="dzdEntVdq1MPW5jjg7Hb-68" value="data_from" style="shape=partialRectangle;connectable=0;fillColor=none;top=0;left=0;bottom=0;right=0;align=left;spacingLeft=6;overflow=hidden;" parent="dzdEntVdq1MPW5jjg7Hb-66" vertex="1">
          <mxGeometry x="30" width="330.4000000000001" height="40" as="geometry">
            <mxRectangle width="330.4000000000001" height="40" as="alternateBounds" />
          </mxGeometry>
        </mxCell>
        <mxCell id="dzdEntVdq1MPW5jjg7Hb-33" value="" style="shape=partialRectangle;collapsible=0;dropTarget=0;pointerEvents=0;fillColor=none;points=[[0,0.5],[1,0.5]];portConstraint=eastwest;top=0;left=0;right=0;bottom=0;" parent="dzdEntVdq1MPW5jjg7Hb-29" vertex="1">
          <mxGeometry y="220" width="360.4000000000001" height="30" as="geometry" />
        </mxCell>
        <mxCell id="dzdEntVdq1MPW5jjg7Hb-34" value="" style="shape=partialRectangle;overflow=hidden;connectable=0;fillColor=none;top=0;left=0;bottom=0;right=0;" parent="dzdEntVdq1MPW5jjg7Hb-33" vertex="1">
          <mxGeometry width="30" height="30" as="geometry">
            <mxRectangle width="30" height="30" as="alternateBounds" />
          </mxGeometry>
        </mxCell>
        <mxCell id="dzdEntVdq1MPW5jjg7Hb-35" value="data_to" style="shape=partialRectangle;overflow=hidden;connectable=0;fillColor=none;top=0;left=0;bottom=0;right=0;align=left;spacingLeft=6;" parent="dzdEntVdq1MPW5jjg7Hb-33" vertex="1">
          <mxGeometry x="30" width="330.4000000000001" height="30" as="geometry">
            <mxRectangle width="330.4000000000001" height="30" as="alternateBounds" />
          </mxGeometry>
        </mxCell>
        <mxCell id="dzdEntVdq1MPW5jjg7Hb-39" value="" style="shape=tableRow;horizontal=0;startSize=0;swimlaneHead=0;swimlaneBody=0;fillColor=none;collapsible=0;dropTarget=0;points=[[0,0.5],[1,0.5]];portConstraint=eastwest;top=0;left=0;right=0;bottom=0;" parent="dzdEntVdq1MPW5jjg7Hb-29" vertex="1">
          <mxGeometry y="250" width="360.4000000000001" height="30" as="geometry" />
        </mxCell>
        <mxCell id="dzdEntVdq1MPW5jjg7Hb-40" value="" style="shape=partialRectangle;connectable=0;fillColor=none;top=0;left=0;bottom=0;right=0;editable=1;overflow=hidden;" parent="dzdEntVdq1MPW5jjg7Hb-39" vertex="1">
          <mxGeometry width="30" height="30" as="geometry">
            <mxRectangle width="30" height="30" as="alternateBounds" />
          </mxGeometry>
        </mxCell>
        <mxCell id="dzdEntVdq1MPW5jjg7Hb-41" value="logs" style="shape=partialRectangle;connectable=0;fillColor=none;top=0;left=0;bottom=0;right=0;align=left;spacingLeft=6;overflow=hidden;" parent="dzdEntVdq1MPW5jjg7Hb-39" vertex="1">
          <mxGeometry x="30" width="330.4000000000001" height="30" as="geometry">
            <mxRectangle width="330.4000000000001" height="30" as="alternateBounds" />
          </mxGeometry>
        </mxCell>
        <mxCell id="dzdEntVdq1MPW5jjg7Hb-42" value="" style="shape=tableRow;horizontal=0;startSize=0;swimlaneHead=0;swimlaneBody=0;fillColor=none;collapsible=0;dropTarget=0;points=[[0,0.5],[1,0.5]];portConstraint=eastwest;top=0;left=0;right=0;bottom=0;" parent="dzdEntVdq1MPW5jjg7Hb-29" vertex="1">
          <mxGeometry y="280" width="360.4000000000001" height="30" as="geometry" />
        </mxCell>
        <mxCell id="dzdEntVdq1MPW5jjg7Hb-43" value="" style="shape=partialRectangle;connectable=0;fillColor=none;top=0;left=0;bottom=0;right=0;editable=1;overflow=hidden;" parent="dzdEntVdq1MPW5jjg7Hb-42" vertex="1">
          <mxGeometry width="30" height="30" as="geometry">
            <mxRectangle width="30" height="30" as="alternateBounds" />
          </mxGeometry>
        </mxCell>
        <mxCell id="dzdEntVdq1MPW5jjg7Hb-44" value="status: todo,inprogress, done, error" style="shape=partialRectangle;connectable=0;fillColor=none;top=0;left=0;bottom=0;right=0;align=left;spacingLeft=6;overflow=hidden;" parent="dzdEntVdq1MPW5jjg7Hb-42" vertex="1">
          <mxGeometry x="30" width="330.4000000000001" height="30" as="geometry">
            <mxRectangle width="330.4000000000001" height="30" as="alternateBounds" />
          </mxGeometry>
        </mxCell>
        <mxCell id="dzdEntVdq1MPW5jjg7Hb-72" value="" style="shape=tableRow;horizontal=0;startSize=0;swimlaneHead=0;swimlaneBody=0;fillColor=none;collapsible=0;dropTarget=0;points=[[0,0.5],[1,0.5]];portConstraint=eastwest;top=0;left=0;right=0;bottom=0;" parent="dzdEntVdq1MPW5jjg7Hb-29" vertex="1">
          <mxGeometry y="310" width="360.4000000000001" height="30" as="geometry" />
        </mxCell>
        <mxCell id="dzdEntVdq1MPW5jjg7Hb-73" value="" style="shape=partialRectangle;connectable=0;fillColor=none;top=0;left=0;bottom=0;right=0;editable=1;overflow=hidden;" parent="dzdEntVdq1MPW5jjg7Hb-72" vertex="1">
          <mxGeometry width="30" height="30" as="geometry">
            <mxRectangle width="30" height="30" as="alternateBounds" />
          </mxGeometry>
        </mxCell>
        <mxCell id="dzdEntVdq1MPW5jjg7Hb-74" value="started_at" style="shape=partialRectangle;connectable=0;fillColor=none;top=0;left=0;bottom=0;right=0;align=left;spacingLeft=6;overflow=hidden;" parent="dzdEntVdq1MPW5jjg7Hb-72" vertex="1">
          <mxGeometry x="30" width="330.4000000000001" height="30" as="geometry">
            <mxRectangle width="330.4000000000001" height="30" as="alternateBounds" />
          </mxGeometry>
        </mxCell>
        <mxCell id="dzdEntVdq1MPW5jjg7Hb-69" value="" style="shape=tableRow;horizontal=0;startSize=0;swimlaneHead=0;swimlaneBody=0;fillColor=none;collapsible=0;dropTarget=0;points=[[0,0.5],[1,0.5]];portConstraint=eastwest;top=0;left=0;right=0;bottom=0;" parent="dzdEntVdq1MPW5jjg7Hb-29" vertex="1">
          <mxGeometry y="340" width="360.4000000000001" height="30" as="geometry" />
        </mxCell>
        <mxCell id="dzdEntVdq1MPW5jjg7Hb-70" value="" style="shape=partialRectangle;connectable=0;fillColor=none;top=0;left=0;bottom=0;right=0;editable=1;overflow=hidden;" parent="dzdEntVdq1MPW5jjg7Hb-69" vertex="1">
          <mxGeometry width="30" height="30" as="geometry">
            <mxRectangle width="30" height="30" as="alternateBounds" />
          </mxGeometry>
        </mxCell>
        <mxCell id="dzdEntVdq1MPW5jjg7Hb-71" value="finished_at" style="shape=partialRectangle;connectable=0;fillColor=none;top=0;left=0;bottom=0;right=0;align=left;spacingLeft=6;overflow=hidden;" parent="dzdEntVdq1MPW5jjg7Hb-69" vertex="1">
          <mxGeometry x="30" width="330.4000000000001" height="30" as="geometry">
            <mxRectangle width="330.4000000000001" height="30" as="alternateBounds" />
          </mxGeometry>
        </mxCell>
        <mxCell id="dzdEntVdq1MPW5jjg7Hb-45" value="" style="shape=tableRow;horizontal=0;startSize=0;swimlaneHead=0;swimlaneBody=0;fillColor=none;collapsible=0;dropTarget=0;points=[[0,0.5],[1,0.5]];portConstraint=eastwest;top=0;left=0;right=0;bottom=0;" parent="dzdEntVdq1MPW5jjg7Hb-29" vertex="1">
          <mxGeometry y="370" width="360.4000000000001" height="20" as="geometry" />
        </mxCell>
        <mxCell id="dzdEntVdq1MPW5jjg7Hb-46" value="" style="shape=partialRectangle;connectable=0;fillColor=none;top=0;left=0;bottom=0;right=0;editable=1;overflow=hidden;" parent="dzdEntVdq1MPW5jjg7Hb-45" vertex="1">
          <mxGeometry width="30" height="20" as="geometry">
            <mxRectangle width="30" height="20" as="alternateBounds" />
          </mxGeometry>
        </mxCell>
        <mxCell id="dzdEntVdq1MPW5jjg7Hb-47" value="created_at" style="shape=partialRectangle;connectable=0;fillColor=none;top=0;left=0;bottom=0;right=0;align=left;spacingLeft=6;overflow=hidden;" parent="dzdEntVdq1MPW5jjg7Hb-45" vertex="1">
          <mxGeometry x="30" width="330.4000000000001" height="20" as="geometry">
            <mxRectangle width="330.4000000000001" height="20" as="alternateBounds" />
          </mxGeometry>
        </mxCell>
        <mxCell id="dzdEntVdq1MPW5jjg7Hb-48" value="" style="shape=tableRow;horizontal=0;startSize=0;swimlaneHead=0;swimlaneBody=0;fillColor=none;collapsible=0;dropTarget=0;points=[[0,0.5],[1,0.5]];portConstraint=eastwest;top=0;left=0;right=0;bottom=0;" parent="dzdEntVdq1MPW5jjg7Hb-29" vertex="1">
          <mxGeometry y="390" width="360.4000000000001" height="30" as="geometry" />
        </mxCell>
        <mxCell id="dzdEntVdq1MPW5jjg7Hb-49" value="" style="shape=partialRectangle;connectable=0;fillColor=none;top=0;left=0;bottom=0;right=0;editable=1;overflow=hidden;" parent="dzdEntVdq1MPW5jjg7Hb-48" vertex="1">
          <mxGeometry width="30" height="30" as="geometry">
            <mxRectangle width="30" height="30" as="alternateBounds" />
          </mxGeometry>
        </mxCell>
        <mxCell id="dzdEntVdq1MPW5jjg7Hb-50" value="updated_at" style="shape=partialRectangle;connectable=0;fillColor=none;top=0;left=0;bottom=0;right=0;align=left;spacingLeft=6;overflow=hidden;" parent="dzdEntVdq1MPW5jjg7Hb-48" vertex="1">
          <mxGeometry x="30" width="330.4000000000001" height="30" as="geometry">
            <mxRectangle width="330.4000000000001" height="30" as="alternateBounds" />
          </mxGeometry>
        </mxCell>
        <mxCell id="dzdEntVdq1MPW5jjg7Hb-75" value="job type" style="shape=table;startSize=30;container=1;collapsible=1;childLayout=tableLayout;fixedRows=1;rowLines=0;fontStyle=1;align=center;resizeLast=1;html=1;" parent="1" vertex="1">
          <mxGeometry x="-230" y="690" width="350" height="220" as="geometry" />
        </mxCell>
        <mxCell id="dzdEntVdq1MPW5jjg7Hb-76" value="" style="shape=tableRow;horizontal=0;startSize=0;swimlaneHead=0;swimlaneBody=0;fillColor=none;collapsible=0;dropTarget=0;points=[[0,0.5],[1,0.5]];portConstraint=eastwest;top=0;left=0;right=0;bottom=1;" parent="dzdEntVdq1MPW5jjg7Hb-75" vertex="1">
          <mxGeometry y="30" width="350" height="30" as="geometry" />
        </mxCell>
        <mxCell id="dzdEntVdq1MPW5jjg7Hb-77" value="PK" style="shape=partialRectangle;connectable=0;fillColor=none;top=0;left=0;bottom=0;right=0;fontStyle=1;overflow=hidden;whiteSpace=wrap;html=1;" parent="dzdEntVdq1MPW5jjg7Hb-76" vertex="1">
          <mxGeometry width="30" height="30" as="geometry">
            <mxRectangle width="30" height="30" as="alternateBounds" />
          </mxGeometry>
        </mxCell>
        <mxCell id="dzdEntVdq1MPW5jjg7Hb-78" value="job_type_id" style="shape=partialRectangle;connectable=0;fillColor=none;top=0;left=0;bottom=0;right=0;align=left;spacingLeft=6;fontStyle=5;overflow=hidden;whiteSpace=wrap;html=1;" parent="dzdEntVdq1MPW5jjg7Hb-76" vertex="1">
          <mxGeometry x="30" width="320" height="30" as="geometry">
            <mxRectangle width="320" height="30" as="alternateBounds" />
          </mxGeometry>
        </mxCell>
        <mxCell id="dzdEntVdq1MPW5jjg7Hb-79" value="" style="shape=tableRow;horizontal=0;startSize=0;swimlaneHead=0;swimlaneBody=0;fillColor=none;collapsible=0;dropTarget=0;points=[[0,0.5],[1,0.5]];portConstraint=eastwest;top=0;left=0;right=0;bottom=0;" parent="dzdEntVdq1MPW5jjg7Hb-75" vertex="1">
          <mxGeometry y="60" width="350" height="30" as="geometry" />
        </mxCell>
        <mxCell id="dzdEntVdq1MPW5jjg7Hb-80" value="" style="shape=partialRectangle;connectable=0;fillColor=none;top=0;left=0;bottom=0;right=0;editable=1;overflow=hidden;whiteSpace=wrap;html=1;" parent="dzdEntVdq1MPW5jjg7Hb-79" vertex="1">
          <mxGeometry width="30" height="30" as="geometry">
            <mxRectangle width="30" height="30" as="alternateBounds" />
          </mxGeometry>
        </mxCell>
        <mxCell id="dzdEntVdq1MPW5jjg7Hb-81" value="&lt;span style=&quot;text-wrap: nowrap;&quot;&gt;job_type_name ( ETL, SCHEDULED, ONE-TIME,BATCH)&lt;/span&gt;" style="shape=partialRectangle;connectable=0;fillColor=none;top=0;left=0;bottom=0;right=0;align=left;spacingLeft=6;overflow=hidden;whiteSpace=wrap;html=1;" parent="dzdEntVdq1MPW5jjg7Hb-79" vertex="1">
          <mxGeometry x="30" width="320" height="30" as="geometry">
            <mxRectangle width="320" height="30" as="alternateBounds" />
          </mxGeometry>
        </mxCell>
        <mxCell id="dzdEntVdq1MPW5jjg7Hb-82" value="" style="shape=tableRow;horizontal=0;startSize=0;swimlaneHead=0;swimlaneBody=0;fillColor=none;collapsible=0;dropTarget=0;points=[[0,0.5],[1,0.5]];portConstraint=eastwest;top=0;left=0;right=0;bottom=0;" parent="dzdEntVdq1MPW5jjg7Hb-75" vertex="1">
          <mxGeometry y="90" width="350" height="30" as="geometry" />
        </mxCell>
        <mxCell id="dzdEntVdq1MPW5jjg7Hb-83" value="" style="shape=partialRectangle;connectable=0;fillColor=none;top=0;left=0;bottom=0;right=0;editable=1;overflow=hidden;whiteSpace=wrap;html=1;" parent="dzdEntVdq1MPW5jjg7Hb-82" vertex="1">
          <mxGeometry width="30" height="30" as="geometry">
            <mxRectangle width="30" height="30" as="alternateBounds" />
          </mxGeometry>
        </mxCell>
        <mxCell id="dzdEntVdq1MPW5jjg7Hb-84" value="&lt;span style=&quot;text-wrap: nowrap;&quot;&gt;max_retries&lt;/span&gt;" style="shape=partialRectangle;connectable=0;fillColor=none;top=0;left=0;bottom=0;right=0;align=left;spacingLeft=6;overflow=hidden;whiteSpace=wrap;html=1;" parent="dzdEntVdq1MPW5jjg7Hb-82" vertex="1">
          <mxGeometry x="30" width="320" height="30" as="geometry">
            <mxRectangle width="320" height="30" as="alternateBounds" />
          </mxGeometry>
        </mxCell>
        <mxCell id="dzdEntVdq1MPW5jjg7Hb-85" value="" style="shape=tableRow;horizontal=0;startSize=0;swimlaneHead=0;swimlaneBody=0;fillColor=none;collapsible=0;dropTarget=0;points=[[0,0.5],[1,0.5]];portConstraint=eastwest;top=0;left=0;right=0;bottom=0;" parent="dzdEntVdq1MPW5jjg7Hb-75" vertex="1">
          <mxGeometry y="120" width="350" height="30" as="geometry" />
        </mxCell>
        <mxCell id="dzdEntVdq1MPW5jjg7Hb-86" value="" style="shape=partialRectangle;connectable=0;fillColor=none;top=0;left=0;bottom=0;right=0;editable=1;overflow=hidden;whiteSpace=wrap;html=1;" parent="dzdEntVdq1MPW5jjg7Hb-85" vertex="1">
          <mxGeometry width="30" height="30" as="geometry">
            <mxRectangle width="30" height="30" as="alternateBounds" />
          </mxGeometry>
        </mxCell>
        <mxCell id="dzdEntVdq1MPW5jjg7Hb-87" value="schedule partern ( This is the similar partern like aws event brigde)" style="shape=partialRectangle;connectable=0;fillColor=none;top=0;left=0;bottom=0;right=0;align=left;spacingLeft=6;overflow=hidden;whiteSpace=wrap;html=1;" parent="dzdEntVdq1MPW5jjg7Hb-85" vertex="1">
          <mxGeometry x="30" width="320" height="30" as="geometry">
            <mxRectangle width="320" height="30" as="alternateBounds" />
          </mxGeometry>
        </mxCell>
        <mxCell id="dzdEntVdq1MPW5jjg7Hb-89" value="" style="shape=tableRow;horizontal=0;startSize=0;swimlaneHead=0;swimlaneBody=0;fillColor=none;collapsible=0;dropTarget=0;points=[[0,0.5],[1,0.5]];portConstraint=eastwest;top=0;left=0;right=0;bottom=0;" parent="dzdEntVdq1MPW5jjg7Hb-75" vertex="1">
          <mxGeometry y="150" width="350" height="40" as="geometry" />
        </mxCell>
        <mxCell id="dzdEntVdq1MPW5jjg7Hb-90" value="" style="shape=partialRectangle;connectable=0;fillColor=none;top=0;left=0;bottom=0;right=0;editable=1;overflow=hidden;" parent="dzdEntVdq1MPW5jjg7Hb-89" vertex="1">
          <mxGeometry width="30" height="40" as="geometry">
            <mxRectangle width="30" height="40" as="alternateBounds" />
          </mxGeometry>
        </mxCell>
        <mxCell id="dzdEntVdq1MPW5jjg7Hb-91" value="created_at" style="shape=partialRectangle;connectable=0;fillColor=none;top=0;left=0;bottom=0;right=0;align=left;spacingLeft=6;overflow=hidden;" parent="dzdEntVdq1MPW5jjg7Hb-89" vertex="1">
          <mxGeometry x="30" width="320" height="40" as="geometry">
            <mxRectangle width="320" height="40" as="alternateBounds" />
          </mxGeometry>
        </mxCell>
        <mxCell id="dzdEntVdq1MPW5jjg7Hb-92" value="" style="shape=tableRow;horizontal=0;startSize=0;swimlaneHead=0;swimlaneBody=0;fillColor=none;collapsible=0;dropTarget=0;points=[[0,0.5],[1,0.5]];portConstraint=eastwest;top=0;left=0;right=0;bottom=0;" parent="dzdEntVdq1MPW5jjg7Hb-75" vertex="1">
          <mxGeometry y="190" width="350" height="30" as="geometry" />
        </mxCell>
        <mxCell id="dzdEntVdq1MPW5jjg7Hb-93" value="" style="shape=partialRectangle;connectable=0;fillColor=none;top=0;left=0;bottom=0;right=0;editable=1;overflow=hidden;" parent="dzdEntVdq1MPW5jjg7Hb-92" vertex="1">
          <mxGeometry width="30" height="30" as="geometry">
            <mxRectangle width="30" height="30" as="alternateBounds" />
          </mxGeometry>
        </mxCell>
        <mxCell id="dzdEntVdq1MPW5jjg7Hb-94" value="updated_at" style="shape=partialRectangle;connectable=0;fillColor=none;top=0;left=0;bottom=0;right=0;align=left;spacingLeft=6;overflow=hidden;" parent="dzdEntVdq1MPW5jjg7Hb-92" vertex="1">
          <mxGeometry x="30" width="320" height="30" as="geometry">
            <mxRectangle width="320" height="30" as="alternateBounds" />
          </mxGeometry>
        </mxCell>
        <mxCell id="miBj2STuNEscEt3o1YzO-1" value="Job Dependency Table" style="shape=table;startSize=30;container=1;collapsible=1;childLayout=tableLayout;fixedRows=1;rowLines=0;fontStyle=1;align=center;resizeLast=1;html=1;" parent="1" vertex="1">
          <mxGeometry x="-610" y="690" width="240" height="180" as="geometry" />
        </mxCell>
        <mxCell id="miBj2STuNEscEt3o1YzO-2" value="" style="shape=tableRow;horizontal=0;startSize=0;swimlaneHead=0;swimlaneBody=0;fillColor=none;collapsible=0;dropTarget=0;points=[[0,0.5],[1,0.5]];portConstraint=eastwest;top=0;left=0;right=0;bottom=1;" parent="miBj2STuNEscEt3o1YzO-1" vertex="1">
          <mxGeometry y="30" width="240" height="30" as="geometry" />
        </mxCell>
        <mxCell id="miBj2STuNEscEt3o1YzO-3" value="PK" style="shape=partialRectangle;connectable=0;fillColor=none;top=0;left=0;bottom=0;right=0;fontStyle=1;overflow=hidden;whiteSpace=wrap;html=1;" parent="miBj2STuNEscEt3o1YzO-2" vertex="1">
          <mxGeometry width="70" height="30" as="geometry">
            <mxRectangle width="70" height="30" as="alternateBounds" />
          </mxGeometry>
        </mxCell>
        <mxCell id="miBj2STuNEscEt3o1YzO-4" value="dependency_id" style="shape=partialRectangle;connectable=0;fillColor=none;top=0;left=0;bottom=0;right=0;align=left;spacingLeft=6;fontStyle=5;overflow=hidden;whiteSpace=wrap;html=1;" parent="miBj2STuNEscEt3o1YzO-2" vertex="1">
          <mxGeometry x="70" width="170" height="30" as="geometry">
            <mxRectangle width="170" height="30" as="alternateBounds" />
          </mxGeometry>
        </mxCell>
        <mxCell id="miBj2STuNEscEt3o1YzO-5" value="" style="shape=tableRow;horizontal=0;startSize=0;swimlaneHead=0;swimlaneBody=0;fillColor=none;collapsible=0;dropTarget=0;points=[[0,0.5],[1,0.5]];portConstraint=eastwest;top=0;left=0;right=0;bottom=0;" parent="miBj2STuNEscEt3o1YzO-1" vertex="1">
          <mxGeometry y="60" width="240" height="30" as="geometry" />
        </mxCell>
        <mxCell id="miBj2STuNEscEt3o1YzO-6" value="CK1" style="shape=partialRectangle;connectable=0;fillColor=none;top=0;left=0;bottom=0;right=0;editable=1;overflow=hidden;whiteSpace=wrap;html=1;" parent="miBj2STuNEscEt3o1YzO-5" vertex="1">
          <mxGeometry width="70" height="30" as="geometry">
            <mxRectangle width="70" height="30" as="alternateBounds" />
          </mxGeometry>
        </mxCell>
        <mxCell id="miBj2STuNEscEt3o1YzO-7" value="job_type_id" style="shape=partialRectangle;connectable=0;fillColor=none;top=0;left=0;bottom=0;right=0;align=left;spacingLeft=6;overflow=hidden;whiteSpace=wrap;html=1;" parent="miBj2STuNEscEt3o1YzO-5" vertex="1">
          <mxGeometry x="70" width="170" height="30" as="geometry">
            <mxRectangle width="170" height="30" as="alternateBounds" />
          </mxGeometry>
        </mxCell>
        <mxCell id="miBj2STuNEscEt3o1YzO-8" value="" style="shape=tableRow;horizontal=0;startSize=0;swimlaneHead=0;swimlaneBody=0;fillColor=none;collapsible=0;dropTarget=0;points=[[0,0.5],[1,0.5]];portConstraint=eastwest;top=0;left=0;right=0;bottom=0;" parent="miBj2STuNEscEt3o1YzO-1" vertex="1">
          <mxGeometry y="90" width="240" height="30" as="geometry" />
        </mxCell>
        <mxCell id="miBj2STuNEscEt3o1YzO-9" value="CK1" style="shape=partialRectangle;connectable=0;fillColor=none;top=0;left=0;bottom=0;right=0;editable=1;overflow=hidden;whiteSpace=wrap;html=1;" parent="miBj2STuNEscEt3o1YzO-8" vertex="1">
          <mxGeometry width="70" height="30" as="geometry">
            <mxRectangle width="70" height="30" as="alternateBounds" />
          </mxGeometry>
        </mxCell>
        <mxCell id="miBj2STuNEscEt3o1YzO-10" value="depends_on_job_type_id" style="shape=partialRectangle;connectable=0;fillColor=none;top=0;left=0;bottom=0;right=0;align=left;spacingLeft=6;overflow=hidden;whiteSpace=wrap;html=1;" parent="miBj2STuNEscEt3o1YzO-8" vertex="1">
          <mxGeometry x="70" width="170" height="30" as="geometry">
            <mxRectangle width="170" height="30" as="alternateBounds" />
          </mxGeometry>
        </mxCell>
        <mxCell id="miBj2STuNEscEt3o1YzO-11" value="" style="shape=tableRow;horizontal=0;startSize=0;swimlaneHead=0;swimlaneBody=0;fillColor=none;collapsible=0;dropTarget=0;points=[[0,0.5],[1,0.5]];portConstraint=eastwest;top=0;left=0;right=0;bottom=0;" parent="miBj2STuNEscEt3o1YzO-1" vertex="1">
          <mxGeometry y="120" width="240" height="30" as="geometry" />
        </mxCell>
        <mxCell id="miBj2STuNEscEt3o1YzO-12" value="" style="shape=partialRectangle;connectable=0;fillColor=none;top=0;left=0;bottom=0;right=0;editable=1;overflow=hidden;whiteSpace=wrap;html=1;" parent="miBj2STuNEscEt3o1YzO-11" vertex="1">
          <mxGeometry width="70" height="30" as="geometry">
            <mxRectangle width="70" height="30" as="alternateBounds" />
          </mxGeometry>
        </mxCell>
        <mxCell id="miBj2STuNEscEt3o1YzO-13" value="created_at" style="shape=partialRectangle;connectable=0;fillColor=none;top=0;left=0;bottom=0;right=0;align=left;spacingLeft=6;overflow=hidden;whiteSpace=wrap;html=1;" parent="miBj2STuNEscEt3o1YzO-11" vertex="1">
          <mxGeometry x="70" width="170" height="30" as="geometry">
            <mxRectangle width="170" height="30" as="alternateBounds" />
          </mxGeometry>
        </mxCell>
        <mxCell id="miBj2STuNEscEt3o1YzO-14" value="" style="shape=tableRow;horizontal=0;startSize=0;swimlaneHead=0;swimlaneBody=0;fillColor=none;collapsible=0;dropTarget=0;points=[[0,0.5],[1,0.5]];portConstraint=eastwest;top=0;left=0;right=0;bottom=0;" parent="miBj2STuNEscEt3o1YzO-1" vertex="1">
          <mxGeometry y="150" width="240" height="30" as="geometry" />
        </mxCell>
        <mxCell id="miBj2STuNEscEt3o1YzO-15" value="" style="shape=partialRectangle;connectable=0;fillColor=none;top=0;left=0;bottom=0;right=0;editable=1;overflow=hidden;" parent="miBj2STuNEscEt3o1YzO-14" vertex="1">
          <mxGeometry width="70" height="30" as="geometry">
            <mxRectangle width="70" height="30" as="alternateBounds" />
          </mxGeometry>
        </mxCell>
        <mxCell id="miBj2STuNEscEt3o1YzO-16" value="updated_at" style="shape=partialRectangle;connectable=0;fillColor=none;top=0;left=0;bottom=0;right=0;align=left;spacingLeft=6;overflow=hidden;" parent="miBj2STuNEscEt3o1YzO-14" vertex="1">
          <mxGeometry x="70" width="170" height="30" as="geometry">
            <mxRectangle width="170" height="30" as="alternateBounds" />
          </mxGeometry>
        </mxCell>
        <mxCell id="miBj2STuNEscEt3o1YzO-27" style="edgeStyle=orthogonalEdgeStyle;rounded=0;orthogonalLoop=1;jettySize=auto;html=1;entryX=0.594;entryY=0.021;entryDx=0;entryDy=0;entryPerimeter=0;" parent="1" source="iy5uLM-DOXcV6CtTuPYc-3" target="dzdEntVdq1MPW5jjg7Hb-1" edge="1">
          <mxGeometry relative="1" as="geometry" />
        </mxCell>
        <mxCell id="miBj2STuNEscEt3o1YzO-28" value="&lt;div&gt;&lt;span style=&quot;background-color: initial;&quot;&gt;frequency&lt;/span&gt;&lt;br&gt;&lt;/div&gt;" style="shape=table;startSize=30;container=1;collapsible=1;childLayout=tableLayout;fixedRows=1;rowLines=0;fontStyle=1;align=center;resizeLast=1;html=1;" parent="1" vertex="1">
          <mxGeometry x="476.25" y="74" width="278.75" height="158" as="geometry" />
        </mxCell>
        <mxCell id="miBj2STuNEscEt3o1YzO-29" value="" style="shape=tableRow;horizontal=0;startSize=0;swimlaneHead=0;swimlaneBody=0;fillColor=none;collapsible=0;dropTarget=0;points=[[0,0.5],[1,0.5]];portConstraint=eastwest;top=0;left=0;right=0;bottom=1;" parent="miBj2STuNEscEt3o1YzO-28" vertex="1">
          <mxGeometry y="30" width="278.75" height="38" as="geometry" />
        </mxCell>
        <mxCell id="miBj2STuNEscEt3o1YzO-30" value="PK" style="shape=partialRectangle;connectable=0;fillColor=none;top=0;left=0;bottom=0;right=0;fontStyle=1;overflow=hidden;whiteSpace=wrap;html=1;" parent="miBj2STuNEscEt3o1YzO-29" vertex="1">
          <mxGeometry width="70" height="38" as="geometry">
            <mxRectangle width="70" height="38" as="alternateBounds" />
          </mxGeometry>
        </mxCell>
        <mxCell id="miBj2STuNEscEt3o1YzO-31" value="&lt;div style=&quot;background-color: rgb(255, 255, 255);&quot;&gt;&lt;pre style=&quot;font-family:&#39;JetBrains Mono&#39;,monospace;font-size:9.8pt;&quot;&gt;frequency_id&lt;/pre&gt;&lt;/div&gt;" style="shape=partialRectangle;connectable=0;fillColor=none;top=0;left=0;bottom=0;right=0;align=left;spacingLeft=6;fontStyle=5;overflow=hidden;whiteSpace=wrap;html=1;" parent="miBj2STuNEscEt3o1YzO-29" vertex="1">
          <mxGeometry x="70" width="208.75" height="38" as="geometry">
            <mxRectangle width="208.75" height="38" as="alternateBounds" />
          </mxGeometry>
        </mxCell>
        <mxCell id="miBj2STuNEscEt3o1YzO-35" value="" style="shape=tableRow;horizontal=0;startSize=0;swimlaneHead=0;swimlaneBody=0;fillColor=none;collapsible=0;dropTarget=0;points=[[0,0.5],[1,0.5]];portConstraint=eastwest;top=0;left=0;right=0;bottom=0;" parent="miBj2STuNEscEt3o1YzO-28" vertex="1">
          <mxGeometry y="68" width="278.75" height="30" as="geometry" />
        </mxCell>
        <mxCell id="miBj2STuNEscEt3o1YzO-36" value="" style="shape=partialRectangle;connectable=0;fillColor=none;top=0;left=0;bottom=0;right=0;editable=1;overflow=hidden;whiteSpace=wrap;html=1;" parent="miBj2STuNEscEt3o1YzO-35" vertex="1">
          <mxGeometry width="70" height="30" as="geometry">
            <mxRectangle width="70" height="30" as="alternateBounds" />
          </mxGeometry>
        </mxCell>
        <mxCell id="miBj2STuNEscEt3o1YzO-37" value="update_frequency_pattern" style="shape=partialRectangle;connectable=0;fillColor=none;top=0;left=0;bottom=0;right=0;align=left;spacingLeft=6;overflow=hidden;whiteSpace=wrap;html=1;" parent="miBj2STuNEscEt3o1YzO-35" vertex="1">
          <mxGeometry x="70" width="208.75" height="30" as="geometry">
            <mxRectangle width="208.75" height="30" as="alternateBounds" />
          </mxGeometry>
        </mxCell>
        <mxCell id="miBj2STuNEscEt3o1YzO-41" value="" style="shape=tableRow;horizontal=0;startSize=0;swimlaneHead=0;swimlaneBody=0;fillColor=none;collapsible=0;dropTarget=0;points=[[0,0.5],[1,0.5]];portConstraint=eastwest;top=0;left=0;right=0;bottom=0;" parent="miBj2STuNEscEt3o1YzO-28" vertex="1">
          <mxGeometry y="98" width="278.75" height="30" as="geometry" />
        </mxCell>
        <mxCell id="miBj2STuNEscEt3o1YzO-42" value="" style="shape=partialRectangle;connectable=0;fillColor=none;top=0;left=0;bottom=0;right=0;editable=1;overflow=hidden;" parent="miBj2STuNEscEt3o1YzO-41" vertex="1">
          <mxGeometry width="70" height="30" as="geometry">
            <mxRectangle width="70" height="30" as="alternateBounds" />
          </mxGeometry>
        </mxCell>
        <mxCell id="miBj2STuNEscEt3o1YzO-43" value="created_at" style="shape=partialRectangle;connectable=0;fillColor=none;top=0;left=0;bottom=0;right=0;align=left;spacingLeft=6;overflow=hidden;" parent="miBj2STuNEscEt3o1YzO-41" vertex="1">
          <mxGeometry x="70" width="208.75" height="30" as="geometry">
            <mxRectangle width="208.75" height="30" as="alternateBounds" />
          </mxGeometry>
        </mxCell>
        <mxCell id="miBj2STuNEscEt3o1YzO-46" value="" style="shape=tableRow;horizontal=0;startSize=0;swimlaneHead=0;swimlaneBody=0;fillColor=none;collapsible=0;dropTarget=0;points=[[0,0.5],[1,0.5]];portConstraint=eastwest;top=0;left=0;right=0;bottom=0;" parent="miBj2STuNEscEt3o1YzO-28" vertex="1">
          <mxGeometry y="128" width="278.75" height="30" as="geometry" />
        </mxCell>
        <mxCell id="miBj2STuNEscEt3o1YzO-47" value="" style="shape=partialRectangle;connectable=0;fillColor=none;top=0;left=0;bottom=0;right=0;editable=1;overflow=hidden;" parent="miBj2STuNEscEt3o1YzO-46" vertex="1">
          <mxGeometry width="70" height="30" as="geometry">
            <mxRectangle width="70" height="30" as="alternateBounds" />
          </mxGeometry>
        </mxCell>
        <mxCell id="miBj2STuNEscEt3o1YzO-48" value="updated_at" style="shape=partialRectangle;connectable=0;fillColor=none;top=0;left=0;bottom=0;right=0;align=left;spacingLeft=6;overflow=hidden;" parent="miBj2STuNEscEt3o1YzO-46" vertex="1">
          <mxGeometry x="70" width="208.75" height="30" as="geometry">
            <mxRectangle width="208.75" height="30" as="alternateBounds" />
          </mxGeometry>
        </mxCell>
        <mxCell id="miBj2STuNEscEt3o1YzO-44" style="edgeStyle=orthogonalEdgeStyle;rounded=0;orthogonalLoop=1;jettySize=auto;html=1;entryX=0.588;entryY=0.967;entryDx=0;entryDy=0;entryPerimeter=0;" parent="1" source="iy5uLM-DOXcV6CtTuPYc-38" target="miBj2STuNEscEt3o1YzO-46" edge="1">
          <mxGeometry relative="1" as="geometry">
            <mxPoint x="526" y="400" as="targetPoint" />
          </mxGeometry>
        </mxCell>
        <mxCell id="miBj2STuNEscEt3o1YzO-45" value="&lt;font style=&quot;font-size: 14px;&quot;&gt;Job check every 2 hour, check delta_from/to_date&lt;/font&gt;&lt;div style=&quot;font-size: 14px;&quot;&gt;&lt;br&gt;&lt;/div&gt;" style="edgeLabel;html=1;align=center;verticalAlign=middle;resizable=0;points=[];" parent="miBj2STuNEscEt3o1YzO-44" vertex="1" connectable="0">
          <mxGeometry x="-0.2829" relative="1" as="geometry">
            <mxPoint x="1" as="offset" />
          </mxGeometry>
        </mxCell>
        <mxCell id="miBj2STuNEscEt3o1YzO-52" value="&lt;font color=&quot;#2ad23b&quot; style=&quot;font-size: 23px; background-color: rgb(26, 26, 26);&quot;&gt;JOB&lt;/font&gt;" style="text;html=1;align=center;verticalAlign=middle;whiteSpace=wrap;rounded=0;movable=0;resizable=0;rotatable=0;deletable=0;editable=0;locked=1;connectable=0;" parent="1" vertex="1">
          <mxGeometry x="755" y="580" width="15" height="30" as="geometry" />
        </mxCell>
        <mxCell id="miBj2STuNEscEt3o1YzO-54" value="person table" style="shape=table;startSize=30;container=1;collapsible=1;childLayout=tableLayout;fixedRows=1;rowLines=0;fontStyle=1;align=center;resizeLast=1;html=1;" parent="1" vertex="1">
          <mxGeometry x="1400" y="590" width="180" height="390" as="geometry" />
        </mxCell>
        <mxCell id="miBj2STuNEscEt3o1YzO-55" value="" style="shape=tableRow;horizontal=0;startSize=0;swimlaneHead=0;swimlaneBody=0;fillColor=none;collapsible=0;dropTarget=0;points=[[0,0.5],[1,0.5]];portConstraint=eastwest;top=0;left=0;right=0;bottom=1;" parent="miBj2STuNEscEt3o1YzO-54" vertex="1">
          <mxGeometry y="30" width="180" height="30" as="geometry" />
        </mxCell>
        <mxCell id="miBj2STuNEscEt3o1YzO-56" value="PK" style="shape=partialRectangle;connectable=0;fillColor=none;top=0;left=0;bottom=0;right=0;fontStyle=1;overflow=hidden;whiteSpace=wrap;html=1;" parent="miBj2STuNEscEt3o1YzO-55" vertex="1">
          <mxGeometry width="30" height="30" as="geometry">
            <mxRectangle width="30" height="30" as="alternateBounds" />
          </mxGeometry>
        </mxCell>
        <mxCell id="miBj2STuNEscEt3o1YzO-57" value="id" style="shape=partialRectangle;connectable=0;fillColor=none;top=0;left=0;bottom=0;right=0;align=left;spacingLeft=6;fontStyle=5;overflow=hidden;whiteSpace=wrap;html=1;" parent="miBj2STuNEscEt3o1YzO-55" vertex="1">
          <mxGeometry x="30" width="150" height="30" as="geometry">
            <mxRectangle width="150" height="30" as="alternateBounds" />
          </mxGeometry>
        </mxCell>
        <mxCell id="miBj2STuNEscEt3o1YzO-58" value="" style="shape=tableRow;horizontal=0;startSize=0;swimlaneHead=0;swimlaneBody=0;fillColor=none;collapsible=0;dropTarget=0;points=[[0,0.5],[1,0.5]];portConstraint=eastwest;top=0;left=0;right=0;bottom=0;" parent="miBj2STuNEscEt3o1YzO-54" vertex="1">
          <mxGeometry y="60" width="180" height="30" as="geometry" />
        </mxCell>
        <mxCell id="miBj2STuNEscEt3o1YzO-59" value="CK1" style="shape=partialRectangle;connectable=0;fillColor=none;top=0;left=0;bottom=0;right=0;editable=1;overflow=hidden;whiteSpace=wrap;html=1;" parent="miBj2STuNEscEt3o1YzO-58" vertex="1">
          <mxGeometry width="30" height="30" as="geometry">
            <mxRectangle width="30" height="30" as="alternateBounds" />
          </mxGeometry>
        </mxCell>
        <mxCell id="miBj2STuNEscEt3o1YzO-60" value="person_id" style="shape=partialRectangle;connectable=0;fillColor=none;top=0;left=0;bottom=0;right=0;align=left;spacingLeft=6;overflow=hidden;whiteSpace=wrap;html=1;" parent="miBj2STuNEscEt3o1YzO-58" vertex="1">
          <mxGeometry x="30" width="150" height="30" as="geometry">
            <mxRectangle width="150" height="30" as="alternateBounds" />
          </mxGeometry>
        </mxCell>
        <mxCell id="miBj2STuNEscEt3o1YzO-61" value="" style="shape=tableRow;horizontal=0;startSize=0;swimlaneHead=0;swimlaneBody=0;fillColor=none;collapsible=0;dropTarget=0;points=[[0,0.5],[1,0.5]];portConstraint=eastwest;top=0;left=0;right=0;bottom=0;" parent="miBj2STuNEscEt3o1YzO-54" vertex="1">
          <mxGeometry y="90" width="180" height="30" as="geometry" />
        </mxCell>
        <mxCell id="miBj2STuNEscEt3o1YzO-62" value="" style="shape=partialRectangle;connectable=0;fillColor=none;top=0;left=0;bottom=0;right=0;editable=1;overflow=hidden;whiteSpace=wrap;html=1;" parent="miBj2STuNEscEt3o1YzO-61" vertex="1">
          <mxGeometry width="30" height="30" as="geometry">
            <mxRectangle width="30" height="30" as="alternateBounds" />
          </mxGeometry>
        </mxCell>
        <mxCell id="miBj2STuNEscEt3o1YzO-63" value="person_name" style="shape=partialRectangle;connectable=0;fillColor=none;top=0;left=0;bottom=0;right=0;align=left;spacingLeft=6;overflow=hidden;whiteSpace=wrap;html=1;" parent="miBj2STuNEscEt3o1YzO-61" vertex="1">
          <mxGeometry x="30" width="150" height="30" as="geometry">
            <mxRectangle width="150" height="30" as="alternateBounds" />
          </mxGeometry>
        </mxCell>
        <mxCell id="miBj2STuNEscEt3o1YzO-64" value="" style="shape=tableRow;horizontal=0;startSize=0;swimlaneHead=0;swimlaneBody=0;fillColor=none;collapsible=0;dropTarget=0;points=[[0,0.5],[1,0.5]];portConstraint=eastwest;top=0;left=0;right=0;bottom=0;" parent="miBj2STuNEscEt3o1YzO-54" vertex="1">
          <mxGeometry y="120" width="180" height="30" as="geometry" />
        </mxCell>
        <mxCell id="miBj2STuNEscEt3o1YzO-65" value="" style="shape=partialRectangle;connectable=0;fillColor=none;top=0;left=0;bottom=0;right=0;editable=1;overflow=hidden;whiteSpace=wrap;html=1;" parent="miBj2STuNEscEt3o1YzO-64" vertex="1">
          <mxGeometry width="30" height="30" as="geometry">
            <mxRectangle width="30" height="30" as="alternateBounds" />
          </mxGeometry>
        </mxCell>
        <mxCell id="miBj2STuNEscEt3o1YzO-66" value="education" style="shape=partialRectangle;connectable=0;fillColor=none;top=0;left=0;bottom=0;right=0;align=left;spacingLeft=6;overflow=hidden;whiteSpace=wrap;html=1;" parent="miBj2STuNEscEt3o1YzO-64" vertex="1">
          <mxGeometry x="30" width="150" height="30" as="geometry">
            <mxRectangle width="150" height="30" as="alternateBounds" />
          </mxGeometry>
        </mxCell>
        <mxCell id="miBj2STuNEscEt3o1YzO-67" value="" style="shape=tableRow;horizontal=0;startSize=0;swimlaneHead=0;swimlaneBody=0;fillColor=none;collapsible=0;dropTarget=0;points=[[0,0.5],[1,0.5]];portConstraint=eastwest;top=0;left=0;right=0;bottom=0;" parent="miBj2STuNEscEt3o1YzO-54" vertex="1">
          <mxGeometry y="150" width="180" height="30" as="geometry" />
        </mxCell>
        <mxCell id="miBj2STuNEscEt3o1YzO-68" value="" style="shape=partialRectangle;connectable=0;fillColor=none;top=0;left=0;bottom=0;right=0;editable=1;overflow=hidden;" parent="miBj2STuNEscEt3o1YzO-67" vertex="1">
          <mxGeometry width="30" height="30" as="geometry">
            <mxRectangle width="30" height="30" as="alternateBounds" />
          </mxGeometry>
        </mxCell>
        <mxCell id="miBj2STuNEscEt3o1YzO-69" value="experience" style="shape=partialRectangle;connectable=0;fillColor=none;top=0;left=0;bottom=0;right=0;align=left;spacingLeft=6;overflow=hidden;" parent="miBj2STuNEscEt3o1YzO-67" vertex="1">
          <mxGeometry x="30" width="150" height="30" as="geometry">
            <mxRectangle width="150" height="30" as="alternateBounds" />
          </mxGeometry>
        </mxCell>
        <mxCell id="miBj2STuNEscEt3o1YzO-70" value="" style="shape=tableRow;horizontal=0;startSize=0;swimlaneHead=0;swimlaneBody=0;fillColor=none;collapsible=0;dropTarget=0;points=[[0,0.5],[1,0.5]];portConstraint=eastwest;top=0;left=0;right=0;bottom=0;" parent="miBj2STuNEscEt3o1YzO-54" vertex="1">
          <mxGeometry y="180" width="180" height="30" as="geometry" />
        </mxCell>
        <mxCell id="miBj2STuNEscEt3o1YzO-71" value="" style="shape=partialRectangle;connectable=0;fillColor=none;top=0;left=0;bottom=0;right=0;editable=1;overflow=hidden;" parent="miBj2STuNEscEt3o1YzO-70" vertex="1">
          <mxGeometry width="30" height="30" as="geometry">
            <mxRectangle width="30" height="30" as="alternateBounds" />
          </mxGeometry>
        </mxCell>
        <mxCell id="miBj2STuNEscEt3o1YzO-72" value="modified_ts" style="shape=partialRectangle;connectable=0;fillColor=none;top=0;left=0;bottom=0;right=0;align=left;spacingLeft=6;overflow=hidden;" parent="miBj2STuNEscEt3o1YzO-70" vertex="1">
          <mxGeometry x="30" width="150" height="30" as="geometry">
            <mxRectangle width="150" height="30" as="alternateBounds" />
          </mxGeometry>
        </mxCell>
        <mxCell id="miBj2STuNEscEt3o1YzO-73" value="" style="shape=tableRow;horizontal=0;startSize=0;swimlaneHead=0;swimlaneBody=0;fillColor=none;collapsible=0;dropTarget=0;points=[[0,0.5],[1,0.5]];portConstraint=eastwest;top=0;left=0;right=0;bottom=0;" parent="miBj2STuNEscEt3o1YzO-54" vertex="1">
          <mxGeometry y="210" width="180" height="30" as="geometry" />
        </mxCell>
        <mxCell id="miBj2STuNEscEt3o1YzO-74" value="" style="shape=partialRectangle;connectable=0;fillColor=none;top=0;left=0;bottom=0;right=0;editable=1;overflow=hidden;" parent="miBj2STuNEscEt3o1YzO-73" vertex="1">
          <mxGeometry width="30" height="30" as="geometry">
            <mxRectangle width="30" height="30" as="alternateBounds" />
          </mxGeometry>
        </mxCell>
        <mxCell id="miBj2STuNEscEt3o1YzO-75" value="row_number" style="shape=partialRectangle;connectable=0;fillColor=none;top=0;left=0;bottom=0;right=0;align=left;spacingLeft=6;overflow=hidden;" parent="miBj2STuNEscEt3o1YzO-73" vertex="1">
          <mxGeometry x="30" width="150" height="30" as="geometry">
            <mxRectangle width="150" height="30" as="alternateBounds" />
          </mxGeometry>
        </mxCell>
        <mxCell id="miBj2STuNEscEt3o1YzO-80" value="" style="shape=tableRow;horizontal=0;startSize=0;swimlaneHead=0;swimlaneBody=0;fillColor=none;collapsible=0;dropTarget=0;points=[[0,0.5],[1,0.5]];portConstraint=eastwest;top=0;left=0;right=0;bottom=0;" parent="miBj2STuNEscEt3o1YzO-54" vertex="1">
          <mxGeometry y="240" width="180" height="30" as="geometry" />
        </mxCell>
        <mxCell id="miBj2STuNEscEt3o1YzO-81" value="" style="shape=partialRectangle;connectable=0;fillColor=none;top=0;left=0;bottom=0;right=0;editable=1;overflow=hidden;" parent="miBj2STuNEscEt3o1YzO-80" vertex="1">
          <mxGeometry width="30" height="30" as="geometry">
            <mxRectangle width="30" height="30" as="alternateBounds" />
          </mxGeometry>
        </mxCell>
        <mxCell id="miBj2STuNEscEt3o1YzO-82" value="valid_record_start_date" style="shape=partialRectangle;connectable=0;fillColor=none;top=0;left=0;bottom=0;right=0;align=left;spacingLeft=6;overflow=hidden;" parent="miBj2STuNEscEt3o1YzO-80" vertex="1">
          <mxGeometry x="30" width="150" height="30" as="geometry">
            <mxRectangle width="150" height="30" as="alternateBounds" />
          </mxGeometry>
        </mxCell>
        <mxCell id="miBj2STuNEscEt3o1YzO-77" value="" style="shape=tableRow;horizontal=0;startSize=0;swimlaneHead=0;swimlaneBody=0;fillColor=none;collapsible=0;dropTarget=0;points=[[0,0.5],[1,0.5]];portConstraint=eastwest;top=0;left=0;right=0;bottom=0;" parent="miBj2STuNEscEt3o1YzO-54" vertex="1">
          <mxGeometry y="270" width="180" height="30" as="geometry" />
        </mxCell>
        <mxCell id="miBj2STuNEscEt3o1YzO-78" value="" style="shape=partialRectangle;connectable=0;fillColor=none;top=0;left=0;bottom=0;right=0;editable=1;overflow=hidden;" parent="miBj2STuNEscEt3o1YzO-77" vertex="1">
          <mxGeometry width="30" height="30" as="geometry">
            <mxRectangle width="30" height="30" as="alternateBounds" />
          </mxGeometry>
        </mxCell>
        <mxCell id="miBj2STuNEscEt3o1YzO-79" value="valid_record_end_date" style="shape=partialRectangle;connectable=0;fillColor=none;top=0;left=0;bottom=0;right=0;align=left;spacingLeft=6;overflow=hidden;" parent="miBj2STuNEscEt3o1YzO-77" vertex="1">
          <mxGeometry x="30" width="150" height="30" as="geometry">
            <mxRectangle width="150" height="30" as="alternateBounds" />
          </mxGeometry>
        </mxCell>
        <mxCell id="miBj2STuNEscEt3o1YzO-86" value="" style="shape=tableRow;horizontal=0;startSize=0;swimlaneHead=0;swimlaneBody=0;fillColor=none;collapsible=0;dropTarget=0;points=[[0,0.5],[1,0.5]];portConstraint=eastwest;top=0;left=0;right=0;bottom=0;" parent="miBj2STuNEscEt3o1YzO-54" vertex="1">
          <mxGeometry y="300" width="180" height="30" as="geometry" />
        </mxCell>
        <mxCell id="miBj2STuNEscEt3o1YzO-87" value="CK1" style="shape=partialRectangle;connectable=0;fillColor=none;top=0;left=0;bottom=0;right=0;editable=1;overflow=hidden;" parent="miBj2STuNEscEt3o1YzO-86" vertex="1">
          <mxGeometry width="30" height="30" as="geometry">
            <mxRectangle width="30" height="30" as="alternateBounds" />
          </mxGeometry>
        </mxCell>
        <mxCell id="miBj2STuNEscEt3o1YzO-88" value="valid_record_current_flag" style="shape=partialRectangle;connectable=0;fillColor=none;top=0;left=0;bottom=0;right=0;align=left;spacingLeft=6;overflow=hidden;" parent="miBj2STuNEscEt3o1YzO-86" vertex="1">
          <mxGeometry x="30" width="150" height="30" as="geometry">
            <mxRectangle width="150" height="30" as="alternateBounds" />
          </mxGeometry>
        </mxCell>
        <mxCell id="miBj2STuNEscEt3o1YzO-92" value="" style="shape=tableRow;horizontal=0;startSize=0;swimlaneHead=0;swimlaneBody=0;fillColor=none;collapsible=0;dropTarget=0;points=[[0,0.5],[1,0.5]];portConstraint=eastwest;top=0;left=0;right=0;bottom=0;" parent="miBj2STuNEscEt3o1YzO-54" vertex="1">
          <mxGeometry y="330" width="180" height="30" as="geometry" />
        </mxCell>
        <mxCell id="miBj2STuNEscEt3o1YzO-93" value="" style="shape=partialRectangle;connectable=0;fillColor=none;top=0;left=0;bottom=0;right=0;editable=1;overflow=hidden;" parent="miBj2STuNEscEt3o1YzO-92" vertex="1">
          <mxGeometry width="30" height="30" as="geometry">
            <mxRectangle width="30" height="30" as="alternateBounds" />
          </mxGeometry>
        </mxCell>
        <mxCell id="miBj2STuNEscEt3o1YzO-94" value="created_at" style="shape=partialRectangle;connectable=0;fillColor=none;top=0;left=0;bottom=0;right=0;align=left;spacingLeft=6;overflow=hidden;" parent="miBj2STuNEscEt3o1YzO-92" vertex="1">
          <mxGeometry x="30" width="150" height="30" as="geometry">
            <mxRectangle width="150" height="30" as="alternateBounds" />
          </mxGeometry>
        </mxCell>
        <mxCell id="miBj2STuNEscEt3o1YzO-89" value="" style="shape=tableRow;horizontal=0;startSize=0;swimlaneHead=0;swimlaneBody=0;fillColor=none;collapsible=0;dropTarget=0;points=[[0,0.5],[1,0.5]];portConstraint=eastwest;top=0;left=0;right=0;bottom=0;" parent="miBj2STuNEscEt3o1YzO-54" vertex="1">
          <mxGeometry y="360" width="180" height="30" as="geometry" />
        </mxCell>
        <mxCell id="miBj2STuNEscEt3o1YzO-90" value="" style="shape=partialRectangle;connectable=0;fillColor=none;top=0;left=0;bottom=0;right=0;editable=1;overflow=hidden;" parent="miBj2STuNEscEt3o1YzO-89" vertex="1">
          <mxGeometry width="30" height="30" as="geometry">
            <mxRectangle width="30" height="30" as="alternateBounds" />
          </mxGeometry>
        </mxCell>
        <mxCell id="miBj2STuNEscEt3o1YzO-91" value="updated_at" style="shape=partialRectangle;connectable=0;fillColor=none;top=0;left=0;bottom=0;right=0;align=left;spacingLeft=6;overflow=hidden;" parent="miBj2STuNEscEt3o1YzO-89" vertex="1">
          <mxGeometry x="30" width="150" height="30" as="geometry">
            <mxRectangle width="150" height="30" as="alternateBounds" />
          </mxGeometry>
        </mxCell>
        <mxCell id="TbAeEo4B2QuOrT_JkvIs-35" value="operation" style="shape=table;startSize=30;container=1;collapsible=1;childLayout=tableLayout;fixedRows=1;rowLines=0;fontStyle=1;align=center;resizeLast=1;html=1;" vertex="1" parent="1">
          <mxGeometry x="1161" y="720" width="180" height="150" as="geometry" />
        </mxCell>
        <mxCell id="TbAeEo4B2QuOrT_JkvIs-36" value="" style="shape=tableRow;horizontal=0;startSize=0;swimlaneHead=0;swimlaneBody=0;fillColor=none;collapsible=0;dropTarget=0;points=[[0,0.5],[1,0.5]];portConstraint=eastwest;top=0;left=0;right=0;bottom=1;" vertex="1" parent="TbAeEo4B2QuOrT_JkvIs-35">
          <mxGeometry y="30" width="180" height="30" as="geometry" />
        </mxCell>
        <mxCell id="TbAeEo4B2QuOrT_JkvIs-37" value="PK" style="shape=partialRectangle;connectable=0;fillColor=none;top=0;left=0;bottom=0;right=0;fontStyle=1;overflow=hidden;whiteSpace=wrap;html=1;" vertex="1" parent="TbAeEo4B2QuOrT_JkvIs-36">
          <mxGeometry width="30" height="30" as="geometry">
            <mxRectangle width="30" height="30" as="alternateBounds" />
          </mxGeometry>
        </mxCell>
        <mxCell id="TbAeEo4B2QuOrT_JkvIs-38" value="operation_id" style="shape=partialRectangle;connectable=0;fillColor=none;top=0;left=0;bottom=0;right=0;align=left;spacingLeft=6;fontStyle=5;overflow=hidden;whiteSpace=wrap;html=1;" vertex="1" parent="TbAeEo4B2QuOrT_JkvIs-36">
          <mxGeometry x="30" width="150" height="30" as="geometry">
            <mxRectangle width="150" height="30" as="alternateBounds" />
          </mxGeometry>
        </mxCell>
        <mxCell id="TbAeEo4B2QuOrT_JkvIs-39" value="" style="shape=tableRow;horizontal=0;startSize=0;swimlaneHead=0;swimlaneBody=0;fillColor=none;collapsible=0;dropTarget=0;points=[[0,0.5],[1,0.5]];portConstraint=eastwest;top=0;left=0;right=0;bottom=0;" vertex="1" parent="TbAeEo4B2QuOrT_JkvIs-35">
          <mxGeometry y="60" width="180" height="30" as="geometry" />
        </mxCell>
        <mxCell id="TbAeEo4B2QuOrT_JkvIs-40" value="" style="shape=partialRectangle;connectable=0;fillColor=none;top=0;left=0;bottom=0;right=0;editable=1;overflow=hidden;whiteSpace=wrap;html=1;" vertex="1" parent="TbAeEo4B2QuOrT_JkvIs-39">
          <mxGeometry width="30" height="30" as="geometry">
            <mxRectangle width="30" height="30" as="alternateBounds" />
          </mxGeometry>
        </mxCell>
        <mxCell id="TbAeEo4B2QuOrT_JkvIs-41" value="operation_name (insert, update, delete, schema change)" style="shape=partialRectangle;connectable=0;fillColor=none;top=0;left=0;bottom=0;right=0;align=left;spacingLeft=6;overflow=hidden;whiteSpace=wrap;html=1;" vertex="1" parent="TbAeEo4B2QuOrT_JkvIs-39">
          <mxGeometry x="30" width="150" height="30" as="geometry">
            <mxRectangle width="150" height="30" as="alternateBounds" />
          </mxGeometry>
        </mxCell>
        <mxCell id="TbAeEo4B2QuOrT_JkvIs-42" value="" style="shape=tableRow;horizontal=0;startSize=0;swimlaneHead=0;swimlaneBody=0;fillColor=none;collapsible=0;dropTarget=0;points=[[0,0.5],[1,0.5]];portConstraint=eastwest;top=0;left=0;right=0;bottom=0;" vertex="1" parent="TbAeEo4B2QuOrT_JkvIs-35">
          <mxGeometry y="90" width="180" height="30" as="geometry" />
        </mxCell>
        <mxCell id="TbAeEo4B2QuOrT_JkvIs-43" value="" style="shape=partialRectangle;connectable=0;fillColor=none;top=0;left=0;bottom=0;right=0;editable=1;overflow=hidden;whiteSpace=wrap;html=1;" vertex="1" parent="TbAeEo4B2QuOrT_JkvIs-42">
          <mxGeometry width="30" height="30" as="geometry">
            <mxRectangle width="30" height="30" as="alternateBounds" />
          </mxGeometry>
        </mxCell>
        <mxCell id="TbAeEo4B2QuOrT_JkvIs-44" value="created_at" style="shape=partialRectangle;connectable=0;fillColor=none;top=0;left=0;bottom=0;right=0;align=left;spacingLeft=6;overflow=hidden;whiteSpace=wrap;html=1;" vertex="1" parent="TbAeEo4B2QuOrT_JkvIs-42">
          <mxGeometry x="30" width="150" height="30" as="geometry">
            <mxRectangle width="150" height="30" as="alternateBounds" />
          </mxGeometry>
        </mxCell>
        <mxCell id="TbAeEo4B2QuOrT_JkvIs-45" value="" style="shape=tableRow;horizontal=0;startSize=0;swimlaneHead=0;swimlaneBody=0;fillColor=none;collapsible=0;dropTarget=0;points=[[0,0.5],[1,0.5]];portConstraint=eastwest;top=0;left=0;right=0;bottom=0;" vertex="1" parent="TbAeEo4B2QuOrT_JkvIs-35">
          <mxGeometry y="120" width="180" height="30" as="geometry" />
        </mxCell>
        <mxCell id="TbAeEo4B2QuOrT_JkvIs-46" value="" style="shape=partialRectangle;connectable=0;fillColor=none;top=0;left=0;bottom=0;right=0;editable=1;overflow=hidden;whiteSpace=wrap;html=1;" vertex="1" parent="TbAeEo4B2QuOrT_JkvIs-45">
          <mxGeometry width="30" height="30" as="geometry">
            <mxRectangle width="30" height="30" as="alternateBounds" />
          </mxGeometry>
        </mxCell>
        <mxCell id="TbAeEo4B2QuOrT_JkvIs-47" value="updated_at" style="shape=partialRectangle;connectable=0;fillColor=none;top=0;left=0;bottom=0;right=0;align=left;spacingLeft=6;overflow=hidden;whiteSpace=wrap;html=1;" vertex="1" parent="TbAeEo4B2QuOrT_JkvIs-45">
          <mxGeometry x="30" width="150" height="30" as="geometry">
            <mxRectangle width="150" height="30" as="alternateBounds" />
          </mxGeometry>
        </mxCell>
        <mxCell id="TbAeEo4B2QuOrT_JkvIs-49" style="edgeStyle=none;curved=1;rounded=0;orthogonalLoop=1;jettySize=auto;html=1;fontSize=12;startSize=8;endSize=8;" edge="1" parent="1" source="TbAeEo4B2QuOrT_JkvIs-36" target="dzdEntVdq1MPW5jjg7Hb-8">
          <mxGeometry relative="1" as="geometry" />
        </mxCell>
        <mxCell id="TbAeEo4B2QuOrT_JkvIs-53" value="&lt;div&gt;&lt;span style=&quot;background-color: initial;&quot;&gt;update table frequency&lt;/span&gt;&lt;br&gt;&lt;/div&gt;" style="shape=table;startSize=30;container=1;collapsible=1;childLayout=tableLayout;fixedRows=1;rowLines=0;fontStyle=1;align=center;resizeLast=1;html=1;" vertex="1" parent="1">
          <mxGeometry x="837" y="69" width="278.75" height="188" as="geometry" />
        </mxCell>
        <mxCell id="TbAeEo4B2QuOrT_JkvIs-54" value="" style="shape=tableRow;horizontal=0;startSize=0;swimlaneHead=0;swimlaneBody=0;fillColor=none;collapsible=0;dropTarget=0;points=[[0,0.5],[1,0.5]];portConstraint=eastwest;top=0;left=0;right=0;bottom=1;" vertex="1" parent="TbAeEo4B2QuOrT_JkvIs-53">
          <mxGeometry y="30" width="278.75" height="38" as="geometry" />
        </mxCell>
        <mxCell id="TbAeEo4B2QuOrT_JkvIs-55" value="PK" style="shape=partialRectangle;connectable=0;fillColor=none;top=0;left=0;bottom=0;right=0;fontStyle=1;overflow=hidden;whiteSpace=wrap;html=1;" vertex="1" parent="TbAeEo4B2QuOrT_JkvIs-54">
          <mxGeometry width="70" height="38" as="geometry">
            <mxRectangle width="70" height="38" as="alternateBounds" />
          </mxGeometry>
        </mxCell>
        <mxCell id="TbAeEo4B2QuOrT_JkvIs-56" value="&lt;div style=&quot;background-color: rgb(255, 255, 255);&quot;&gt;&lt;pre style=&quot;font-family:&#39;JetBrains Mono&#39;,monospace;font-size:9.8pt;&quot;&gt;table_frequncy_id&lt;/pre&gt;&lt;/div&gt;" style="shape=partialRectangle;connectable=0;fillColor=none;top=0;left=0;bottom=0;right=0;align=left;spacingLeft=6;fontStyle=5;overflow=hidden;whiteSpace=wrap;html=1;" vertex="1" parent="TbAeEo4B2QuOrT_JkvIs-54">
          <mxGeometry x="70" width="208.75" height="38" as="geometry">
            <mxRectangle width="208.75" height="38" as="alternateBounds" />
          </mxGeometry>
        </mxCell>
        <mxCell id="TbAeEo4B2QuOrT_JkvIs-108" value="" style="shape=tableRow;horizontal=0;startSize=0;swimlaneHead=0;swimlaneBody=0;fillColor=none;collapsible=0;dropTarget=0;points=[[0,0.5],[1,0.5]];portConstraint=eastwest;top=0;left=0;right=0;bottom=0;" vertex="1" parent="TbAeEo4B2QuOrT_JkvIs-53">
          <mxGeometry y="68" width="278.75" height="30" as="geometry" />
        </mxCell>
        <mxCell id="TbAeEo4B2QuOrT_JkvIs-109" value="FK" style="shape=partialRectangle;connectable=0;fillColor=none;top=0;left=0;bottom=0;right=0;editable=1;overflow=hidden;" vertex="1" parent="TbAeEo4B2QuOrT_JkvIs-108">
          <mxGeometry width="70" height="30" as="geometry">
            <mxRectangle width="70" height="30" as="alternateBounds" />
          </mxGeometry>
        </mxCell>
        <mxCell id="TbAeEo4B2QuOrT_JkvIs-110" value="frequency_id" style="shape=partialRectangle;connectable=0;fillColor=none;top=0;left=0;bottom=0;right=0;align=left;spacingLeft=6;overflow=hidden;" vertex="1" parent="TbAeEo4B2QuOrT_JkvIs-108">
          <mxGeometry x="70" width="208.75" height="30" as="geometry">
            <mxRectangle width="208.75" height="30" as="alternateBounds" />
          </mxGeometry>
        </mxCell>
        <mxCell id="TbAeEo4B2QuOrT_JkvIs-57" value="" style="shape=tableRow;horizontal=0;startSize=0;swimlaneHead=0;swimlaneBody=0;fillColor=none;collapsible=0;dropTarget=0;points=[[0,0.5],[1,0.5]];portConstraint=eastwest;top=0;left=0;right=0;bottom=0;" vertex="1" parent="TbAeEo4B2QuOrT_JkvIs-53">
          <mxGeometry y="98" width="278.75" height="30" as="geometry" />
        </mxCell>
        <mxCell id="TbAeEo4B2QuOrT_JkvIs-58" value="" style="shape=partialRectangle;connectable=0;fillColor=none;top=0;left=0;bottom=0;right=0;editable=1;overflow=hidden;whiteSpace=wrap;html=1;" vertex="1" parent="TbAeEo4B2QuOrT_JkvIs-57">
          <mxGeometry width="70" height="30" as="geometry">
            <mxRectangle width="70" height="30" as="alternateBounds" />
          </mxGeometry>
        </mxCell>
        <mxCell id="TbAeEo4B2QuOrT_JkvIs-59" value="vro_api_slug" style="shape=partialRectangle;connectable=0;fillColor=none;top=0;left=0;bottom=0;right=0;align=left;spacingLeft=6;overflow=hidden;whiteSpace=wrap;html=1;" vertex="1" parent="TbAeEo4B2QuOrT_JkvIs-57">
          <mxGeometry x="70" width="208.75" height="30" as="geometry">
            <mxRectangle width="208.75" height="30" as="alternateBounds" />
          </mxGeometry>
        </mxCell>
        <mxCell id="TbAeEo4B2QuOrT_JkvIs-63" value="" style="shape=tableRow;horizontal=0;startSize=0;swimlaneHead=0;swimlaneBody=0;fillColor=none;collapsible=0;dropTarget=0;points=[[0,0.5],[1,0.5]];portConstraint=eastwest;top=0;left=0;right=0;bottom=0;" vertex="1" parent="TbAeEo4B2QuOrT_JkvIs-53">
          <mxGeometry y="128" width="278.75" height="30" as="geometry" />
        </mxCell>
        <mxCell id="TbAeEo4B2QuOrT_JkvIs-64" value="" style="shape=partialRectangle;connectable=0;fillColor=none;top=0;left=0;bottom=0;right=0;editable=1;overflow=hidden;" vertex="1" parent="TbAeEo4B2QuOrT_JkvIs-63">
          <mxGeometry width="70" height="30" as="geometry">
            <mxRectangle width="70" height="30" as="alternateBounds" />
          </mxGeometry>
        </mxCell>
        <mxCell id="TbAeEo4B2QuOrT_JkvIs-65" value="created_at" style="shape=partialRectangle;connectable=0;fillColor=none;top=0;left=0;bottom=0;right=0;align=left;spacingLeft=6;overflow=hidden;" vertex="1" parent="TbAeEo4B2QuOrT_JkvIs-63">
          <mxGeometry x="70" width="208.75" height="30" as="geometry">
            <mxRectangle width="208.75" height="30" as="alternateBounds" />
          </mxGeometry>
        </mxCell>
        <mxCell id="TbAeEo4B2QuOrT_JkvIs-66" value="" style="shape=tableRow;horizontal=0;startSize=0;swimlaneHead=0;swimlaneBody=0;fillColor=none;collapsible=0;dropTarget=0;points=[[0,0.5],[1,0.5]];portConstraint=eastwest;top=0;left=0;right=0;bottom=0;" vertex="1" parent="TbAeEo4B2QuOrT_JkvIs-53">
          <mxGeometry y="158" width="278.75" height="30" as="geometry" />
        </mxCell>
        <mxCell id="TbAeEo4B2QuOrT_JkvIs-67" value="" style="shape=partialRectangle;connectable=0;fillColor=none;top=0;left=0;bottom=0;right=0;editable=1;overflow=hidden;" vertex="1" parent="TbAeEo4B2QuOrT_JkvIs-66">
          <mxGeometry width="70" height="30" as="geometry">
            <mxRectangle width="70" height="30" as="alternateBounds" />
          </mxGeometry>
        </mxCell>
        <mxCell id="TbAeEo4B2QuOrT_JkvIs-68" value="updated_at" style="shape=partialRectangle;connectable=0;fillColor=none;top=0;left=0;bottom=0;right=0;align=left;spacingLeft=6;overflow=hidden;" vertex="1" parent="TbAeEo4B2QuOrT_JkvIs-66">
          <mxGeometry x="70" width="208.75" height="30" as="geometry">
            <mxRectangle width="208.75" height="30" as="alternateBounds" />
          </mxGeometry>
        </mxCell>
        <mxCell id="TbAeEo4B2QuOrT_JkvIs-69" style="edgeStyle=none;curved=1;rounded=0;orthogonalLoop=1;jettySize=auto;html=1;fontSize=12;startSize=8;endSize=8;" edge="1" parent="1" source="miBj2STuNEscEt3o1YzO-29" target="TbAeEo4B2QuOrT_JkvIs-54">
          <mxGeometry relative="1" as="geometry" />
        </mxCell>
        <mxCell id="TbAeEo4B2QuOrT_JkvIs-70" value="&lt;div&gt;&lt;span style=&quot;background-color: initial;&quot;&gt;update job frequency&lt;/span&gt;&lt;br&gt;&lt;/div&gt;" style="shape=table;startSize=23;container=1;collapsible=1;childLayout=tableLayout;fixedRows=1;rowLines=0;fontStyle=1;align=center;resizeLast=1;html=1;" vertex="1" parent="1">
          <mxGeometry x="-24" y="63" width="278.75" height="194.76470588235316" as="geometry" />
        </mxCell>
        <mxCell id="TbAeEo4B2QuOrT_JkvIs-71" value="" style="shape=tableRow;horizontal=0;startSize=0;swimlaneHead=0;swimlaneBody=0;fillColor=none;collapsible=0;dropTarget=0;points=[[0,0.5],[1,0.5]];portConstraint=eastwest;top=0;left=0;right=0;bottom=1;" vertex="1" parent="TbAeEo4B2QuOrT_JkvIs-70">
          <mxGeometry y="23" width="278.75" height="39" as="geometry" />
        </mxCell>
        <mxCell id="TbAeEo4B2QuOrT_JkvIs-72" value="PK" style="shape=partialRectangle;connectable=0;fillColor=none;top=0;left=0;bottom=0;right=0;fontStyle=1;overflow=hidden;whiteSpace=wrap;html=1;" vertex="1" parent="TbAeEo4B2QuOrT_JkvIs-71">
          <mxGeometry width="70" height="39" as="geometry">
            <mxRectangle width="70" height="39" as="alternateBounds" />
          </mxGeometry>
        </mxCell>
        <mxCell id="TbAeEo4B2QuOrT_JkvIs-73" value="&lt;div style=&quot;background-color: rgb(255, 255, 255);&quot;&gt;&lt;pre style=&quot;font-family:&#39;JetBrains Mono&#39;,monospace;font-size:9.8pt;&quot;&gt;job_frequency_id&lt;/pre&gt;&lt;/div&gt;" style="shape=partialRectangle;connectable=0;fillColor=none;top=0;left=0;bottom=0;right=0;align=left;spacingLeft=6;fontStyle=5;overflow=hidden;whiteSpace=wrap;html=1;" vertex="1" parent="TbAeEo4B2QuOrT_JkvIs-71">
          <mxGeometry x="70" width="208.75" height="39" as="geometry">
            <mxRectangle width="208.75" height="39" as="alternateBounds" />
          </mxGeometry>
        </mxCell>
        <mxCell id="TbAeEo4B2QuOrT_JkvIs-105" value="" style="shape=tableRow;horizontal=0;startSize=0;swimlaneHead=0;swimlaneBody=0;fillColor=none;collapsible=0;dropTarget=0;points=[[0,0.5],[1,0.5]];portConstraint=eastwest;top=0;left=0;right=0;bottom=0;" vertex="1" parent="TbAeEo4B2QuOrT_JkvIs-70">
          <mxGeometry y="62" width="278.75" height="30" as="geometry" />
        </mxCell>
        <mxCell id="TbAeEo4B2QuOrT_JkvIs-106" value="FK" style="shape=partialRectangle;connectable=0;fillColor=none;top=0;left=0;bottom=0;right=0;editable=1;overflow=hidden;" vertex="1" parent="TbAeEo4B2QuOrT_JkvIs-105">
          <mxGeometry width="70" height="30" as="geometry">
            <mxRectangle width="70" height="30" as="alternateBounds" />
          </mxGeometry>
        </mxCell>
        <mxCell id="TbAeEo4B2QuOrT_JkvIs-107" value="frequency_id" style="shape=partialRectangle;connectable=0;fillColor=none;top=0;left=0;bottom=0;right=0;align=left;spacingLeft=6;overflow=hidden;" vertex="1" parent="TbAeEo4B2QuOrT_JkvIs-105">
          <mxGeometry x="70" width="208.75" height="30" as="geometry">
            <mxRectangle width="208.75" height="30" as="alternateBounds" />
          </mxGeometry>
        </mxCell>
        <mxCell id="TbAeEo4B2QuOrT_JkvIs-74" value="" style="shape=tableRow;horizontal=0;startSize=0;swimlaneHead=0;swimlaneBody=0;fillColor=none;collapsible=0;dropTarget=0;points=[[0,0.5],[1,0.5]];portConstraint=eastwest;top=0;left=0;right=0;bottom=0;" vertex="1" parent="TbAeEo4B2QuOrT_JkvIs-70">
          <mxGeometry y="92" width="278.75" height="35" as="geometry" />
        </mxCell>
        <mxCell id="TbAeEo4B2QuOrT_JkvIs-75" value="FK" style="shape=partialRectangle;connectable=0;fillColor=none;top=0;left=0;bottom=0;right=0;editable=1;overflow=hidden;whiteSpace=wrap;html=1;" vertex="1" parent="TbAeEo4B2QuOrT_JkvIs-74">
          <mxGeometry width="70" height="35" as="geometry">
            <mxRectangle width="70" height="35" as="alternateBounds" />
          </mxGeometry>
        </mxCell>
        <mxCell id="TbAeEo4B2QuOrT_JkvIs-76" value="&lt;pre style=&quot;font-family: &amp;quot;JetBrains Mono&amp;quot;, monospace; font-size: 9.8pt;&quot;&gt;Job_type_id&lt;/pre&gt;" style="shape=partialRectangle;connectable=0;fillColor=none;top=0;left=0;bottom=0;right=0;align=left;spacingLeft=6;overflow=hidden;whiteSpace=wrap;html=1;" vertex="1" parent="TbAeEo4B2QuOrT_JkvIs-74">
          <mxGeometry x="70" width="208.75" height="35" as="geometry">
            <mxRectangle width="208.75" height="35" as="alternateBounds" />
          </mxGeometry>
        </mxCell>
        <mxCell id="TbAeEo4B2QuOrT_JkvIs-80" value="" style="shape=tableRow;horizontal=0;startSize=0;swimlaneHead=0;swimlaneBody=0;fillColor=none;collapsible=0;dropTarget=0;points=[[0,0.5],[1,0.5]];portConstraint=eastwest;top=0;left=0;right=0;bottom=0;" vertex="1" parent="TbAeEo4B2QuOrT_JkvIs-70">
          <mxGeometry y="127" width="278.75" height="30" as="geometry" />
        </mxCell>
        <mxCell id="TbAeEo4B2QuOrT_JkvIs-81" value="" style="shape=partialRectangle;connectable=0;fillColor=none;top=0;left=0;bottom=0;right=0;editable=1;overflow=hidden;" vertex="1" parent="TbAeEo4B2QuOrT_JkvIs-80">
          <mxGeometry width="70" height="30" as="geometry">
            <mxRectangle width="70" height="30" as="alternateBounds" />
          </mxGeometry>
        </mxCell>
        <mxCell id="TbAeEo4B2QuOrT_JkvIs-82" value="created_at" style="shape=partialRectangle;connectable=0;fillColor=none;top=0;left=0;bottom=0;right=0;align=left;spacingLeft=6;overflow=hidden;" vertex="1" parent="TbAeEo4B2QuOrT_JkvIs-80">
          <mxGeometry x="70" width="208.75" height="30" as="geometry">
            <mxRectangle width="208.75" height="30" as="alternateBounds" />
          </mxGeometry>
        </mxCell>
        <mxCell id="TbAeEo4B2QuOrT_JkvIs-83" value="" style="shape=tableRow;horizontal=0;startSize=0;swimlaneHead=0;swimlaneBody=0;fillColor=none;collapsible=0;dropTarget=0;points=[[0,0.5],[1,0.5]];portConstraint=eastwest;top=0;left=0;right=0;bottom=0;" vertex="1" parent="TbAeEo4B2QuOrT_JkvIs-70">
          <mxGeometry y="157" width="278.75" height="30" as="geometry" />
        </mxCell>
        <mxCell id="TbAeEo4B2QuOrT_JkvIs-84" value="" style="shape=partialRectangle;connectable=0;fillColor=none;top=0;left=0;bottom=0;right=0;editable=1;overflow=hidden;" vertex="1" parent="TbAeEo4B2QuOrT_JkvIs-83">
          <mxGeometry width="70" height="30" as="geometry">
            <mxRectangle width="70" height="30" as="alternateBounds" />
          </mxGeometry>
        </mxCell>
        <mxCell id="TbAeEo4B2QuOrT_JkvIs-85" value="updated_at" style="shape=partialRectangle;connectable=0;fillColor=none;top=0;left=0;bottom=0;right=0;align=left;spacingLeft=6;overflow=hidden;" vertex="1" parent="TbAeEo4B2QuOrT_JkvIs-83">
          <mxGeometry x="70" width="208.75" height="30" as="geometry">
            <mxRectangle width="208.75" height="30" as="alternateBounds" />
          </mxGeometry>
        </mxCell>
        <mxCell id="TbAeEo4B2QuOrT_JkvIs-86" style="edgeStyle=none;curved=1;rounded=0;orthogonalLoop=1;jettySize=auto;html=1;fontSize=12;startSize=8;endSize=8;" edge="1" parent="1" source="miBj2STuNEscEt3o1YzO-29" target="TbAeEo4B2QuOrT_JkvIs-71">
          <mxGeometry relative="1" as="geometry" />
        </mxCell>
        <mxCell id="TbAeEo4B2QuOrT_JkvIs-89" style="edgeStyle=none;curved=1;rounded=0;orthogonalLoop=1;jettySize=auto;html=1;entryX=1;entryY=0.5;entryDx=0;entryDy=0;fontSize=12;startSize=8;endSize=8;" edge="1" parent="1" source="dzdEntVdq1MPW5jjg7Hb-76" target="miBj2STuNEscEt3o1YzO-8">
          <mxGeometry relative="1" as="geometry" />
        </mxCell>
        <mxCell id="TbAeEo4B2QuOrT_JkvIs-90" style="edgeStyle=none;curved=1;rounded=0;orthogonalLoop=1;jettySize=auto;html=1;fontSize=12;startSize=8;endSize=8;" edge="1" parent="1" source="dzdEntVdq1MPW5jjg7Hb-76" target="miBj2STuNEscEt3o1YzO-5">
          <mxGeometry relative="1" as="geometry" />
        </mxCell>
        <mxCell id="TbAeEo4B2QuOrT_JkvIs-91" style="edgeStyle=none;curved=1;rounded=0;orthogonalLoop=1;jettySize=auto;html=1;fontSize=12;startSize=8;endSize=8;" edge="1" parent="1" source="dzdEntVdq1MPW5jjg7Hb-76" target="TbAeEo4B2QuOrT_JkvIs-71">
          <mxGeometry relative="1" as="geometry" />
        </mxCell>
        <mxCell id="TbAeEo4B2QuOrT_JkvIs-92" style="edgeStyle=none;curved=1;rounded=0;orthogonalLoop=1;jettySize=auto;html=1;fontSize=12;startSize=8;endSize=8;" edge="1" parent="1" source="dzdEntVdq1MPW5jjg7Hb-76" target="dzdEntVdq1MPW5jjg7Hb-54">
          <mxGeometry relative="1" as="geometry" />
        </mxCell>
      </root>
    </mxGraphModel>
  </diagram>
</mxfile>
